<?xml version="1.0" encoding="UTF-8" standalone="no"?>
<!-- Created with Inkscape (http://www.inkscape.org/) -->

<svg
   version="1.1"
   id="svg1"
   width="278"
   height="181"
   viewBox="0 0 278 181"
   sodipodi:docname="combat14.svg"
   inkscape:version="1.3.2 (091e20e, 2023-11-25, custom)"
   xml:space="preserve"
   xmlns:inkscape="http://www.inkscape.org/namespaces/inkscape"
   xmlns:sodipodi="http://sodipodi.sourceforge.net/DTD/sodipodi-0.dtd"
   xmlns="http://www.w3.org/2000/svg"
   xmlns:svg="http://www.w3.org/2000/svg"><defs
     id="defs1" /><sodipodi:namedview
     id="namedview1"
     pagecolor="#505050"
     bordercolor="#eeeeee"
     borderopacity="1"
     inkscape:showpageshadow="0"
     inkscape:pageopacity="0"
     inkscape:pagecheckerboard="0"
     inkscape:deskcolor="#d1d1d1"
     inkscape:zoom="2.2584012"
     inkscape:cx="132.61594"
     inkscape:cy="89.665203"
     inkscape:window-width="1920"
     inkscape:window-height="1017"
     inkscape:window-x="1358"
     inkscape:window-y="-8"
     inkscape:window-maximized="1"
     inkscape:current-layer="g1" /><g
     inkscape:groupmode="layer"
     inkscape:label="Image"
     id="g1"
     transform="translate(231.61377,-26.327127)"><path
       style="fill:#000000"
       d="m -38.90873,206.69883 c -0.387772,-0.38777 -0.70504,-2.04293 -0.70504,-3.67813 0,-1.6352 -0.712773,-3.49428 -1.58394,-4.13129 -1.444056,-1.05592 -1.439835,-1.68386 0.04779,-7.11025 3.281554,-11.97004 2.920422,-39.51743 -0.505144,-38.53271 -4.939501,1.41991 -8.864005,1.17538 -10.706496,-0.66711 -1.688522,-1.68852 -2.98086,-1.87929 -9.984567,-1.47385 -6.924089,0.40083 -18.402085,-0.77349 -22.507562,-2.30277 -2.664362,-0.99246 -9.644497,19.86449 -8.360327,24.98103 0.323964,1.29078 3.632179,5.87858 7.351589,10.19512 6.991852,8.11436 13.233663,19.76325 11.512151,21.48476 -0.583758,0.58376 -1.967714,0.54625 -3.665758,-0.0993 -1.500366,-0.57044 -4.273644,-1.03716 -6.162839,-1.03716 h -3.434901 v -3.5 c 0,-1.925 -0.356941,-3.5 -0.793203,-3.5 -0.436262,0 -1.223762,-1.4446 -1.75,-3.21022 -0.669376,-2.24587 -3.059591,-4.81396 -7.956797,-8.54891 -9.4366,-7.19702 -9.98488,-7.82283 -10.09904,-11.52715 -0.0545,-1.76755 -0.16697,-4.70261 -0.25,-6.52236 l -0.15096,-3.30865 -6.14054,3.27288 c -7.90514,4.21339 -9.35137,7.24369 -8.51637,17.84441 0.32492,4.125 1.46024,9.944 2.52295,12.93111 1.97099,5.54017 1.87738,8.06889 -0.29871,8.06889 -2.10418,0 -5.56733,-4.51324 -5.56733,-7.25544 0,-1.44459 -0.45,-2.90464 -1,-3.24456 -0.55,-0.33992 -1.0601,-4.75398 -1.13355,-9.80902 l -0.13354,-9.19098 -0.95459,7.89134 c -0.77855,6.43606 -0.6716,8.55685 0.57996,11.5 0.844,1.98476 1.81941,5.07116 2.16759,6.85866 0.74125,3.80554 -0.95594,4.32476 -5.15123,1.5759 -2.02493,-1.32678 -2.44136,-2.24228 -2.00726,-4.41278 0.32729,-1.63646 0.0273,-3.17057 -0.74527,-3.81178 -0.92393,-0.76679 -1.19113,-3.432 -0.93611,-9.33722 l 0.35689,-8.26412 -1.79665,4.49116 c -1.61401,4.03458 -5.24624,6.84491 -5.24624,4.05911 0,-0.65596 -0.9866,-0.44993 -2.45602,0.51287 -4.18021,2.73898 -4.67754,1.30677 -3.92385,-11.29982 0.72549,-12.13487 0.13673,-13.48541 -2.99853,-6.87833 -0.89188,1.8795 -1.6216,4.56988 -1.6216,5.97862 0,7.99528 -8.72603,21.09396 -17.36577,26.06783 -13.92769,8.01813 -34.01905,4.31681 -44.25592,-8.15302 -5.95313,-7.25168 -7.85747,-12.64348 -7.86854,-22.27842 -0.0142,-12.36669 3.97384,-20.1564 14.44351,-28.21193 l 3.45328,-2.657 -1.90341,-5.81554 c -1.12884,-3.44894 -1.92371,-8.77222 -1.95328,-13.08112 l -0.0499,-7.26558 -3,-1.97783 c -1.65,-1.0878 -3.3375,-1.98079 -3.75,-1.98441 -0.4125,-0.004 -0.75,1.92841 -0.75,4.29341 0,4.35092 -1.30626,6.7 -3.72568,6.7 -1.08482,0 -1.07277,-0.49964 0.0663,-2.75 0.76562,-1.5125 1.69466,-4.42201 2.06454,-6.46558 l 0.6725,-3.71558 -4.18889,-3.03442 c -2.30389,-1.66893 -4.72663,-3.03442 -5.38387,-3.03442 -1.76836,0 -4.80437,-3.706516 -4.04389,-4.936989 1.15305,-1.86568 3.05603,-1.15646 6.53894,2.436986 4.07401,4.203313 5.22663,4.329253 7.52454,0.822203 l 1.75455,-2.677787 -2.01451,-1.572208 c -1.10798,-0.864714 -2.97078,-2.234049 -4.13954,-3.042967 -2.36485,-1.636735 -2.88096,-5.029241 -0.76511,-5.029241 0.74796,0 2.18453,1.098054 3.19238,2.44012 1.00785,1.342066 2.26541,2.172537 2.79458,1.845491 0.52917,-0.327045 0.66379,-0.111905 0.29915,0.47809 -0.36925,0.59746 2.69943,3.953172 6.92641,7.574282 l 7.58938,6.50156 2.92092,-1.01823 c 4.82089,-1.68057 4.80718,-3.21923 -0.0218,-2.44705 -3.22684,0.51599 -4.13982,0.3726 -3.80553,-0.5977 0.24189,-0.70211 1.58292,-1.26274 2.98006,-1.24585 3.36156,0.0406 3.05042,-2.045514 -1.61872,-10.853376 -1.98922,-3.752465 -3.59293,-7.577465 -3.5638,-8.5 0.0291,-0.922535 1.4392,1.360163 3.13348,5.072663 3.21212,7.038412 3.44015,7.272567 5.69286,5.845752 1.15002,-0.728393 1.03738,-1.886134 -0.67755,-6.964328 l -2.05686,-6.090706 1.60997,-4.098598 c 1.38779,-3.532959 1.41229,-4.223695 0.17755,-5.005046 -3.10367,-1.964024 -4.65821,-0.988117 -5.98722,3.758648 -0.72309,2.582646 -1.49341,4.159652 -1.71181,3.504458 -0.51544,-1.546329 2.40142,-10.418363 5.38356,-16.374855 l 2.3404,-4.674675 5.51308,-1.144511 c 3.63483,-0.754588 6.037,-1.887493 7.05089,-3.325325 l 1.53781,-2.180814 -2.39662,-0.303593 c -2.08165,-0.263695 -2.47633,-0.976634 -3.00314,-5.424718 -0.49606,-4.188412 -0.21505,-5.754542 1.54289,-8.598946 l 2.14941,-3.477822 -2.66601,0.669125 c -2.38999,0.599851 -2.64444,0.408586 -2.45772,-1.84746 0.24243,-2.929269 1.38493,-3.176907 3.94945,-0.85605 1.00918,0.913295 2.16891,1.326503 2.57717,0.918239 0.40826,-0.408263 -0.0445,-1.317613 -1.00613,-2.020778 -2.15337,-1.574581 -2.19266,-2.173553 -0.1929,-2.940932 1.09253,-0.419243 1.86577,0.293036 2.59783,2.393011 0.67721,1.942659 1.72595,2.989924 2.99413,2.989924 1.67003,0 7.85251,2.590141 7.85251,3.289798 0,0.13114 0.89398,2.684249 1.98661,5.673576 1.09264,2.989327 1.5947,5.682975 1.11569,5.985883 -0.47902,0.302909 -1.03948,1.439441 -1.24548,2.525627 -0.20599,1.086185 -1.47652,2.524284 -2.8234,3.195774 l -2.44887,1.220892 2.77283,1.054225 c 1.52505,0.579824 3.45314,1.054225 4.28464,1.054225 2.53839,0 7.17064,5.484455 7.89544,9.347971 1.24562,6.639742 5.22703,15.06773 7.62304,16.136709 1.25166,0.558426 3.24791,1.91532 4.43613,3.01532 3.48995,3.230855 9.87184,6.446536 11.18421,5.63545 1.24821,-0.771435 0.512,-4.110931 -6.64346,-30.13545 -3.34376,-12.161315 -3.41378,-12.036128 -5.03387,9 l -0.96268,12.5 0.45275,-11.5 c 0.6733,-17.101859 1.61194,-28 2.41159,-28 0.39056,0 3.13667,9.006779 6.10247,20.015064 4.12868,15.324606 5.74388,19.958796 6.89236,19.774958 3.6189,-0.579277 5.52258,4.287396 2.75836,7.051619 -0.98885,0.988855 -0.93796,1.433636 0.25,2.184687 0.8204,0.518676 0.98162,0.949938 0.35827,0.95836 -0.62335,0.0084 -1.37108,0.924323 -1.66162,2.035337 -0.38873,1.486539 0.20416,2.398767 2.245,3.454122 3.9519,2.04361 24.48247,5.198116 46.04999,7.075536 10.175,0.88572 19.958964,1.98713 21.742143,2.44758 3.851286,0.99448 5.166365,-0.33589 2.855819,-2.88902 -3.521773,-3.89151 -0.532029,-9.445056 4.538764,-8.430897 l 2.912571,0.582514 -0.974562,-2.563292 c -0.699964,-1.841046 -0.636468,-2.700706 0.225352,-3.050982 0.699521,-0.284312 0.753,-0.520614 0.12824,-0.566638 -1.523569,-0.112237 -0.900895,-14.804611 0.709675,-16.745229 0.700885,-0.844515 1.365423,-2.15609 1.47675,-2.914611 0.544305,-3.708584 9.987628,-8.264315 20.385248,-9.83443 4.125,-0.622904 8.580734,-1.736632 9.901631,-2.474949 2.067254,-1.155496 2.323136,-1.137845 1.837854,0.12678 -0.416776,1.086102 0.08509,1.397949 1.924787,1.196002 1.76323,-0.193554 2.3354,0.125961 1.963073,1.09623 -0.341059,0.888786 -0.01691,1.174244 0.923583,0.813343 0.883139,-0.338892 1.449072,0.05214 1.449072,1.001238 0,0.856514 0.58966,1.917159 1.3103556,2.356988 1.8679154,1.139961 4.6896449,5.480173 4.6896449,7.213326 0,1.091082 -0.4040527,0.969614 -1.57175,-0.472506 l -1.5717499,-1.94113 0.5800475,3.416488 c 0.3190261,1.879069 1.8138136,4.961288 3.3217499,6.849378 1.5079364,1.888089 3.49475447,4.577985 4.41515137,5.977546 l 1.67344893,2.544655 -2.13577309,2.888788 c -1.66502181,2.252062 -2.69510871,2.771738 -4.67344891,2.357741 -1.3957217,-0.292076 -3.2126758,-0.08874 -4.0376758,0.451866 -1.0919429,0.715523 -1.1438976,0.987079 -0.190983,0.998226 0.7313096,0.0086 0.9949405,0.523499 0.5973567,1.166803 -0.5001217,0.809214 -1.077003,0.651854 -1.9407502,-0.52939 -1.113955,-1.523424 -1.28667,-1.530829 -1.843771,-0.07905 -0.338074,0.881007 -0.126927,2.513207 0.469215,3.627109 0.596143,1.113901 1.9588002,4.568231 3.0281275,7.676281 1.0693273,3.10806 3.0717765,7.35485 4.4498869,9.43731 1.3781105,2.08247 2.1943107,4.29007 1.8137783,4.90578 -0.4526227,0.73236 -0.2338768,0.83642 0.63257,0.30093 0.92447812,-0.57136 1.15529061,-0.37774 0.76430641,0.64115 -0.39970191,1.04161 0.24383942,1.52097 2.24679809,1.67359 l 2.806939,0.21388 -1.1209414,-2.96972 c -0.9109457,-2.41337 -0.7936485,-3.65605 0.6261236,-6.63334 2.0196505,-4.23525 1.505735,-5.49016 -1.2332477,-3.01142 -2.24488814,2.0316 -4.000272,0.37857 -2.06905341,-1.94841 1.24898091,-1.50493 6.08901831,-1.99749 7.33957641,-0.74693 0.3900954,0.3901 2.4111663,0.58639 4.4912683,0.4362 4.347269,-0.31389 5.364939,0.59723 7.460352,6.67921 1.613173,4.68227 0.746772,7.93806 -2.803173,10.53384 -1.523379,1.11392 -1.54176,1.38217 -0.172578,2.51849 1.251688,1.03881 2.175728,0.9665 5.044304,-0.39472 1.931547,-0.91658 4.008751,-2.26518 4.616009,-2.99688 0.607258,-0.7317 1.559754,-7.32775 2.116659,-14.65788 0.556904,-7.33014 1.238441,-14.002523 1.514527,-14.827523 0.51144,-1.528287 3.781107,7.852493 9.549225,27.397033 2.343421,7.94039 3.703237,11.02445 5.011742,11.36664 0.987653,0.25827 1.795733,0.62093 1.795733,0.80591 0,0.85646 -2.571234,6.18354 -4.069136,8.43042 -0.916656,1.375 -5.476176,9.52817 -10.132266,18.11817 l -8.465619,15.61817 1.727525,4.38183 c 1.080554,2.7408 1.385044,4.80395 0.813041,5.50895 -0.502966,0.61992 -0.792772,2.64492 -0.644014,4.5 l 0.270469,3.37288 -3.75,-0.29328 c -3.299392,-0.25805 -3.75,-0.0255 -3.75,1.93554 0,1.22586 0.978442,3.27034 2.174314,4.54329 1.195873,1.27294 1.672431,2.31445 1.059017,2.31445 -0.613413,0 -1.397948,-0.45734 -1.743412,-1.01631 -0.345463,-0.55898 -1.129651,-0.70635 -1.74264,-0.3275 -1.65693,1.02404 2.28954,2.26006 5.133098,1.60767 1.745491,-0.40046 2.25193,-0.17509 1.898791,0.84501 -0.51434,1.48574 -2.211943,1.52243 -7.757742,0.16767 -3.138014,-0.76657 -3.551974,-1.27973 -4.228291,-5.24145 -0.412344,-2.41542 -1.096985,-4.6816 -1.521425,-5.03595 -0.642895,-0.53673 -14.9297126,-3.73582 -24.27171,-5.4349 -1.375,-0.25008 0.5375,-0.24181 4.2500005,0.0184 l 6.75,0.47308 v -3.52785 -3.52785 h -3.5 c -2.79786,0 -3.5,0.38938 -3.5,1.94098 0,1.06754 -0.3849944,2.17892 -0.8555432,2.46974 -1.0514613,0.64984 -0.1473698,-4.71159 0.9127892,-5.41301 0.4175529,-0.27626 1.0301933,-2.30126 1.361423,-4.5 l 0.6022359,-3.99771 -1.3722562,3.5 c -0.7547408,1.925 -2.3534282,5.075 -3.5526392,7 -1.854589,2.97703 -2.090235,3.11724 -1.577066,0.93837 0.494821,-2.10097 0.119423,-2.78211 -2.087479,-3.78765 -2.288711,-1.0428 -2.984122,-0.96055 -4.653755,0.55045 -1.079627,0.97705 -2.422346,2.63482 -2.983819,3.68395 -0.880751,1.64569 -0.730791,1.83164 1.092624,1.35481 1.162417,-0.30398 2.113485,-0.14482 2.113485,0.35369 0,0.49851 0.668663,0.90638 1.485918,0.90638 0.866307,0 -0.605643,2.18918 -3.529959,5.25 -3.985856,4.1719 -4.942613,5.81472 -4.65911,8 0.196221,1.5125 -0.0153,2.75 -0.470041,2.75 -0.454744,0 -0.826808,-0.99 -0.826808,-2.2 0,-1.51322 -0.322405,-1.8776 -1.032782,-1.16722 -1.632625,1.63262 -0.0053,4.44077 2.3974,4.1371 1.174461,-0.14844 2.360382,0.18012 2.635382,0.73012 0.574142,1.14828 -14.177633,1.98903 -15.29496,0.8717 z m 55.656587,-4.8717 c 0.350624,-0.91371 0.0016,-1.5 -0.893011,-1.5 -0.807739,0 -1.468616,0.675 -1.468616,1.5 0,0.825 0.401856,1.5 0.893012,1.5 0.491156,0 1.152033,-0.675 1.468615,-1.5 z m -192.478127,-2.93976 c 1.71407,-0.88638 3.1165,-1.99593 3.1165,-2.46567 0,-2.07253 -13.70497,-19.61648 -15.52501,-19.87382 -1.59006,-0.22482 -3.10957,1.86992 -7.79625,10.74766 l -5.82126,11.0269 2.32126,0.88167 c 4.72244,1.79368 6.47778,2.00977 13.45476,1.65628 3.92342,-0.19877 8.53592,-1.08663 10.25,-1.97302 z m 139.944587,-0.81024 c -0.749741,-2.47449 -0.485717,-5.51687 1.106471,-12.75 3.169207,-14.39734 5.644019,-34.82143 4.373328,-36.09212 -0.737971,-0.73797 -2.236207,-0.735 -5.002609,0.01 l -3.94913,1.06339 0.748923,5.2594 c 1.257658,8.83205 0.942806,25.86946 -0.613871,33.21811 -1.623009,7.66179 -0.588336,12.5413 2.659312,12.5413 1.410728,0 1.513268,-0.49184 0.677576,-3.25 z m 2.83858,1.58333 c -0.366667,-0.36667 -0.666667,-0.0667 -0.666667,0.66667 0,0.73333 0.3,1.03333 0.666667,0.66666 0.366667,-0.36666 0.366667,-0.96666 0,-1.33333 z m -49.666667,-0.63755 c 0,-2.02537 -5.350449,-9.82604 -9.331089,-13.60423 -1.975098,-1.87465 -3.314068,-3.85668 -2.97549,-4.40451 0.338578,-0.54783 0.126858,-0.694 -0.47049,-0.32482 -1.853325,1.14542 -4.224323,-3.56297 -4.197114,-8.33473 0.0142,-2.49012 1.160902,-7.67749 2.548228,-11.52749 2.972341,-8.24861 4.830549,-14.30623 6.288492,-20.5 l 1.059248,-4.5 -0.485365,5.17484 c -0.562426,5.99645 -1.308541,5.50958 11.944571,7.79421 9.50212,1.63802 14.919522,1.87262 20.797889,0.90064 l 3.678879,-0.60829 1.202852,-5.1307 c 0.661569,-2.82189 2.493573,-8.70433 4.071121,-13.07211 3.437706,-9.51801 3.684775,-11.6075 1.095429,-9.26417 -1.158272,1.04822 -2.266393,1.29936 -3.196591,0.72447 -1.161707,-0.71797 -0.992559,-1.22909 0.91902,-2.77699 1.882433,-1.5243 2.136957,-2.26483 1.29533,-3.76874 -0.957312,-1.71062 -2.239112,-1.84771 -14.896181,-1.59315 -9.80844,0.19726 -16.474443,-0.21369 -22.848739,-1.40861 -5.827689,-1.09245 -12.182392,-1.54811 -18.0286,-1.29273 -8.15863,0.35639 -9.67958,0.75222 -15.78442,4.10786 -3.71571,2.04241 -7.41533,3.71347 -8.2214,3.71347 -0.84866,0 -1.47203,0.94712 -1.48089,2.25 -0.0124,1.81944 -0.20082,1.96296 -0.98469,0.75 -0.53316,-0.825 -0.96195,-1.05 -0.95288,-0.5 0.009,0.55 0.67718,1.87351 1.48468,2.94113 0.80751,1.06762 1.47808,3.31762 1.49016,5 0.0384,5.34036 3.76517,11.58455 11.90236,19.94205 l 7.90284,8.11682 1.08642,5.93366 c 0.59753,3.26351 1.08642,7.56682 1.08642,9.56291 0,4.02198 1.36158,5.57455 11.287078,12.87037 4.108607,3.02006 5.957598,5.10643 6.375,7.19345 0.323357,1.61678 0.951348,2.93961 1.395535,2.93961 0.444187,0 1.093261,0.9 1.442387,2 0.701028,2.20874 3.5,2.76516 3.5,0.69578 z m -47.64301,-1.44578 c -0.47134,-0.9625 -0.82201,-6.04934 -0.77925,-11.30409 0.0937,-11.51552 1.39947,-14.2974 8.82279,-18.7964 2.81471,-1.7059 6.68857,-4.43045 8.60857,-6.05457 l 3.4909,-2.95294 -7.32718,-7.42221 c -4.33229,-4.38849 -8.53912,-9.83327 -10.29227,-13.32101 l -2.9651,-5.89878 0.52372,5.49116 c 0.3021,3.16748 1.80108,8.08585 3.54228,11.62272 1.6602,3.37235 3.01855,6.39127 3.01855,6.7087 0,1.27378 -6.24612,9.72586 -8.49433,11.4943 l -2.40112,1.88872 -0.16134,12.51593 c -0.13343,10.35115 0.13686,12.97104 1.56274,15.1472 1.94032,2.9613 4.21379,3.66404 2.85104,0.88127 z m 52.309677,0.0833 c -0.366667,-0.36667 -0.666667,-0.0667 -0.666667,0.66667 0,0.73333 0.3,1.03333 0.666667,0.66666 0.366667,-0.36666 0.366667,-0.96666 0,-1.33333 z m 48.488648,0.35381 c -1.656283,-1.9957 1.97756,-8.47115 9.397276,-16.74579 3.498605,-3.90173 6.637918,-7.96623 6.976251,-9.03222 0.338333,-1.066 1.102282,-1.63711 1.697663,-1.26914 0.604331,0.37349 0.797344,0.20761 0.436944,-0.37553 -0.355062,-0.5745 0.513272,-3.11794 1.9296325,-5.65208 1.4163603,-2.53415 2.404627,-5.11926 2.1961483,-5.74469 -0.3108073,-0.93243 -14.7101218,-6.74791 -16.9377378,-6.84068 -0.35668,-0.0149 -0.974594,3.22 -1.373142,7.18857 -0.398548,3.96858 -2.01922,12.34158 -3.601491,18.60669 -3.317605,13.13626 -3.793923,21.17773 -1.254414,21.17773 1.226003,0 1.356209,-0.3208 0.53287,-1.31286 z m 46.66801,-1.02001 c 0.218005,-1.12408 -0.352039,-1.66713 -1.75,-1.66713 -1.140329,0 -2.073325,0.6 -2.073325,1.33333 0,3.06274 3.239226,3.34555 3.823325,0.3338 z m -49.823325,0.83287 c 0,-0.275 -0.225,-0.5 -0.5,-0.5 -0.275,0 -0.5,0.225 -0.5,0.5 0,0.275 0.225,0.5 0.5,0.5 0.275,0 0.5,-0.225 0.5,-0.5 z m -171.22757,-2.75 c 2.37793,-2.92183 11.17015,-20.47409 10.56096,-21.08328 -0.84723,-0.84723 -11.18786,-0.86031 -19.1867,-0.0243 -7.18725,0.75122 -7.35884,1.19999 -3.57808,9.35755 2.29595,4.95387 8.80211,13 10.51189,13 0.37104,0 1.1324,-0.5625 1.69193,-1.25 z m 181.676679,-2.09439 c 3.216663,-4.21727 3.191815,-4.65561 -0.263896,-4.65561 -2.23747,0 -3.160428,0.72481 -4.5,3.53392 -2.104973,4.41418 -2.101906,4.46608 0.263896,4.46608 1.07201,0 3.09701,-1.50498 4.5,-3.34439 z m 47.550891,1.37957 c 0,-0.53065 -0.895447,-1.44404 -1.989882,-2.02977 -1.588343,-0.85005 -1.770602,-1.41608 -0.903207,-2.805 0.815363,-1.3056 0.691216,-2.60895 -0.49724,-5.22023 l -1.583916,-3.48018 0.48458,3.5 c 0.370371,2.67509 0.266057,3.02862 -0.442591,1.5 -0.822051,-1.77324 -0.948294,-1.65986 -1.11346,1 -0.102889,1.65695 -0.386181,2.24169 -0.632794,1.30615 -0.24558,-0.93161 -0.0033,-3.2991 0.538456,-5.26109 0.541731,-1.96198 0.619202,-3.34119 0.172159,-3.0649 -0.447043,0.27628 -1.116165,-1.11471 -1.486938,-3.0911 -0.928861,-4.95125 -1.776538,-3.56568 -2.037935,3.33112 -0.13509,3.56424 0.3007,6.53594 1.136853,7.75232 0.745753,1.08488 1.355915,2.99738 1.355915,4.25 0,2.41104 1.410956,3.03961 2.579366,1.14908 0.476811,-0.77149 0.985648,-0.61334 1.608707,0.5 0.995004,1.77798 2.811927,2.20676 2.811927,0.6636 z m -6,-3.53518 c 0,-0.275 0.225,-0.5 0.5,-0.5 0.275,0 0.5,0.225 0.5,0.5 0,0.275 -0.225,0.5 -0.5,0.5 -0.275,0 -0.5,-0.225 -0.5,-0.5 z m -2,-8.5 c 0,-0.73334 0.3,-1.03334 0.666667,-0.66667 0.366667,0.36667 0.366667,0.96667 0,1.33333 -0.366667,0.36667 -0.666667,0.0667 -0.666667,-0.66666 z m -0.921052,-4.58334 c 0.04798,-1.16494 0.28494,-1.4019 0.604167,-0.60416 0.28887,0.72187 0.253344,1.58437 -0.07895,1.91666 -0.332292,0.3323 -0.56864,-0.25833 -0.525219,-1.3125 z m -182.326338,13.33334 c 3.33661,-3.44808 6.60944,-10.12368 7.59912,-15.5 l 0.59827,-3.25 -11.725,0.0153 c -13.30822,0.0174 -15.46465,0.69646 -13.3505,4.20417 2.80405,4.65237 12.46904,17.78052 13.09007,17.78052 0.3537,0 2.05832,-1.4625 3.78804,-3.25 z m 39.24739,2.75 c 0,-0.275 -0.225,-0.5 -0.5,-0.5 -0.275,0 -0.5,0.225 -0.5,0.5 0,0.275 0.225,0.5 0.5,0.5 0.275,0 0.5,-0.225 0.5,-0.5 z m 93,0 c 0,-0.275 -0.225,-0.5 -0.5,-0.5 -0.275,0 -0.5,0.225 -0.5,0.5 0,0.275 0.225,0.5 0.5,0.5 0.275,0 0.5,-0.225 0.5,-0.5 z m 50.984688,-0.75 c -0.02662,-2.17335 -1.395267,-3.43533 -4.313504,-3.97737 -1.839959,-0.34175 -3.008404,-0.0574 -3.342562,0.81338 -0.4166832,1.08586 -0.9685836,1.04077 -2.9211834,-0.23862 l -2.4074381,-1.57741 v 2.06969 c 0,1.5856 0.8442648,2.22809 3.609505,2.74685 2.4050565,0.45119 3.8602155,0.27149 4.3608365,-0.53853 0.553235,-0.89516 0.911579,-0.79809 1.35911,0.36816 0.718304,1.87187 3.677388,2.14214 3.655236,0.33385 z M 3.5503358,186.86619 c -0.05011,-2.49649 0.2764101,-4.53906 0.7256002,-4.53906 1.1904039,0 0.076851,-10.06855 -1.4377636,-13 l -1.2916921,-2.5 -1.07769537,2.80871 c -0.59273244,1.54479 -1.28887932,4.69479 -1.54699303,7 -0.2581138,2.30521 -0.215528,3.29129 0.0946351,2.19129 1.07934042,-3.82791 2.20825143,-3.71832 1.31592423,0.12773 -1.5435781,6.65304 -1.19195176,12.17094 0.8038793,12.61487 2.4395439,0.54264 2.516402,0.39289 2.4141053,-4.70354 z M -143.08124,183.26423 c 2.77028,-5.35714 3.85846,-19.53705 2.71057,-35.32109 -1.18027,-16.22918 -0.72135,-19.46362 3.3671,-23.73104 1.48043,-1.54523 2.40146,-3.41221 2.08727,-4.23098 -0.65991,-1.71968 -6.52221,-3.24319 -7.71563,-2.00516 -0.45127,0.46814 -2.44602,4.79757 -4.43279,9.62096 l -3.6123,8.7698 1.65404,11.2302 c 1.18842,8.06882 1.52001,15.23596 1.17794,25.45985 -0.26186,7.82631 -0.24585,14.4599 0.0356,14.74133 0.77929,0.77928 3.16237,-1.50584 4.72823,-4.53387 z m 2.96747,3.0629 c 0.33992,-0.55 0.39303,-1 0.11803,-1 -0.275,0 -0.77811,0.45 -1.11803,1 -0.33992,0.55 -0.39303,1 -0.11803,1 0.275,0 0.77811,-0.45 1.11803,-1 z m 107.5,0.5 c 0,-0.275 -0.225,-0.5 -0.5,-0.5 -0.275,0 -0.5,0.225 -0.5,0.5 0,0.275 0.225,0.5 0.5,0.5 0.275,0 0.5,-0.225 0.5,-0.5 z m -105.07028,-6.87245 c 0.0387,-0.47984 -0.57797,-0.33444 -1.37028,0.32312 -0.79231,0.65755 -1.16362,1.91725 -0.82513,2.79933 0.53065,1.38285 0.7194,1.33835 1.37027,-0.32312 0.41517,-1.05978 0.78648,-2.31948 0.82514,-2.79933 z m 47.07028,3.87245 c 0,-0.275 -0.225,-0.5 -0.5,-0.5 -0.275,0 -0.5,0.225 -0.5,0.5 0,0.275 0.225,0.5 0.5,0.5 0.275,0 0.5,-0.225 0.5,-0.5 z m 99.769065,-5.25 C 8.8883283,175.96463 7.2281797,170.12711 5.466076,165.60486 L 2.262251,157.3826 -8.1757593,148.17838 c -9.8358887,-8.67328 -11.7396427,-10.85125 -9.4850137,-10.85125 0.524147,0 1.421638,-1.6875 1.994423,-3.75 1.304711,-4.69805 1.304343,-5.25 -0.0035,-5.25 -0.580848,0 -3.733776,-1.32854 -7.006506,-2.95231 l -5.950418,-2.95231 -1.442468,3.45231 c -1.640895,3.92721 -2.807895,4.19477 -7.044521,1.61506 l -3,-1.82671 -2.1841,10.08198 c -1.797513,8.29746 -3.137261,20.02514 -1.652835,14.46834 0.305997,-1.14547 1.596391,-1.61364 4.447635,-1.61364 5.441358,0 6.511346,-1.33971 3.402544,-4.26028 -1.964354,-1.84542 -2.478292,-3.2512 -2.353206,-6.43676 l 0.160037,-4.07568 0.411792,3.5 c 0.762915,6.48434 6.189069,10.4693 22.526096,16.54314 4.85127,1.80363 10.3251091,4.42695 12.1640865,5.8296 4.7484862,3.62185 9.8735068,13.00512 9.0789963,16.6225 -0.3399753,1.5479 -0.1614446,3.09661 0.3967349,3.44158 0.5581796,0.34498 0.7613802,1.28782 0.451557,2.0952 -0.3618111,0.94287 0.057034,1.46798 1.1709032,1.46798 1.4703506,0 1.6603636,-0.72273 1.2488241,-4.75 z m -40.769065,3.25 c 0,-0.275 -0.225,-0.5 -0.5,-0.5 -0.275,0 -0.5,0.225 -0.5,0.5 0,0.275 0.225,0.5 0.5,0.5 0.275,0 0.5,-0.225 0.5,-0.5 z m -60.232072,-2.5 c -1.321712,-2.1164 -3.767928,-2.72731 -3.767928,-0.94099 0,0.58246 0.402847,0.81005 0.895216,0.50575 0.492368,-0.3043 1.153245,0.11914 1.468615,0.94098 0.31537,0.82184 1.041336,1.49426 1.613259,1.49426 0.65009,0 0.571691,-0.74966 -0.209162,-2 z m 112.765406,-3.53334 c -3.088028,-5.26932 -2.855146,-7.24413 0.271862,-2.30535 l 2.054685,3.24515 0.506204,-2.45323 c 0.278412,-1.34928 0.75101,-6.23261 1.050218,-10.85184 l 0.544014,-8.39861 -3.012661,-6.31246 c -1.656964,-3.47186 -3.407426,-6.55644 -3.889916,-6.85464 -1.201532,-0.74259 -4.455554,0.58986 -3.305386,1.35348 1.232968,0.81859 3.233191,6.79196 2.514869,7.51028 -0.313208,0.31321 -1.201288,-0.21104 -1.973512,-1.16499 -1.250476,-1.54475 -1.279773,-1.47899 -0.267856,0.60119 1.411548,2.90171 0.594917,3.88309 -1.751689,2.10509 -1.512653,-1.14613 -1.589915,-1.13765 -0.524166,0.0575 1.708174,1.91557 1.573311,3.33981 -0.25,2.64014 -2.297266,-0.88154 -1.78227,1.25349 1.991741,8.25723 1.895474,3.51759 3.219122,6.76321 2.941442,7.21251 -0.630273,1.0198 4.495637,11.2964 5.255545,10.53649 0.304844,-0.30484 -0.665084,-2.63491 -2.155394,-5.17794 z m -146.033334,3.53334 c 0.33992,-0.55 0.16803,-1 -0.38197,-1 -0.55,0 -1.27811,0.45 -1.61803,1 -0.33992,0.55 -0.16803,1 0.38197,1 0.55,0 1.27811,-0.45 1.61803,-1 z m 94.5,0.5 c 0,-0.275 -0.225,-0.5 -0.5,-0.5 -0.275,0 -0.5,0.225 -0.5,0.5 0,0.275 0.225,0.5 0.5,0.5 0.275,0 0.5,-0.225 0.5,-0.5 z m 20,-1 c 0,-0.275 -0.225,-0.5 -0.5,-0.5 -0.275,0 -0.5,0.225 -0.5,0.5 0,0.275 0.225,0.5 0.5,0.5 0.275,0 0.5,-0.225 0.5,-0.5 z m -19.5,-2.5 c -0.292943,-0.47399 -0.07528,-1.14446 0.483689,-1.48992 0.558971,-0.34546 1.002,-1.16406 0.984508,-1.8191 -0.04382,-1.64096 -2.968197,2.35827 -2.968197,4.05916 0,0.75234 0.457341,1.08524 1.016312,0.73978 0.558972,-0.34547 0.776632,-1.01593 0.483688,-1.48992 z m 17.166667,1.33333 c -0.366667,-0.36667 -0.966667,-0.36667 -1.333333,0 -0.366667,0.36667 -0.06667,0.66667 0.666666,0.66667 0.733334,0 1.033334,-0.3 0.666667,-0.66667 z m -123.666667,-1.16667 c 0,-1.30207 -1.18877,-2.16803 -2.15579,-1.57038 -1.03422,0.63918 -0.14245,2.40372 1.21481,2.40372 0.51754,0 0.94098,-0.375 0.94098,-0.83334 z m -2,-0.66666 c 0,-0.275 0.225,-0.5 0.5,-0.5 0.275,0 0.5,0.225 0.5,0.5 0,0.275 -0.225,0.5 -0.5,0.5 -0.275,0 -0.5,-0.225 -0.5,-0.5 z m 14,1 c 0,-0.275 -0.225,-0.5 -0.5,-0.5 -0.275,0 -0.5,0.225 -0.5,0.5 0,0.275 0.225,0.5 0.5,0.5 0.275,0 0.5,-0.225 0.5,-0.5 z m 114,0 c 0,-0.275 -0.225,-0.5 -0.5,-0.5 -0.275,0 -0.5,0.225 -0.5,0.5 0,0.275 0.225,0.5 0.5,0.5 0.275,0 0.5,-0.225 0.5,-0.5 z m -111,-7.06442 c 0,-0.2725 -1.35,0.50264 -3,1.72254 -1.65,1.2199 -3,2.82388 -3,3.56441 0,0.74578 1.33832,-0.0227 3,-1.72253 1.65,-1.68793 3,-3.29192 3,-3.56442 z m 25.666667,5.89775 c -0.366667,-0.36667 -0.966667,-0.36667 -1.333333,0 -0.366667,0.36667 -0.06667,0.66667 0.666666,0.66667 0.733334,0 1.033334,-0.3 0.666667,-0.66667 z M 11.88623,175.32713 c 0.339919,-0.55 0.393034,-1 0.118034,-1 -0.275,0 -0.778115,0.45 -1.118034,1 -0.339918,0.55 -0.393034,1 -0.118034,1 0.275,0 0.778116,-0.45 1.118034,-1 z m -22.833333,-0.66667 c -0.366667,-0.36667 -0.966667,-0.36667 -1.333333,0 -0.366667,0.36667 -0.06667,0.66667 0.666666,0.66667 0.733334,0 1.033334,-0.3 0.666667,-0.66667 z m 26,-1 c -0.366667,-0.36667 -0.666667,-0.0667 -0.666667,0.66667 0,0.73333 0.3,1.03333 0.666667,0.66666 0.366667,-0.36666 0.366667,-0.96666 0,-1.33333 z M -94.98186,171.02755 c -0.291075,-1.11307 -0.128147,-2.77319 0.362062,-3.68916 0.490208,-0.91596 1.071744,-2.75571 1.292301,-4.08832 0.220558,-1.33262 1.003203,-3.77294 1.739213,-5.42294 0.73601,-1.65 1.41993,-3.7875 1.519821,-4.75 0.197292,-1.90099 -1.051048,-2.35875 -2.045307,-0.75 -0.339918,0.55 -0.109333,1 0.512412,1 0.65351,0 0.46746,0.66298 -0.440983,1.57143 -0.864286,0.86428 -1.571429,2.15918 -1.571429,2.87755 0,0.71837 -0.626049,1.8257 -1.391221,2.46074 -1.711175,1.42015 -3.855813,11.29757 -2.887031,13.2966 0.804154,1.65934 3.412133,-0.58636 2.910162,-2.5059 z m 86.3680905,2.79958 c 0,-0.275 -0.225,-0.5 -0.5,-0.5 -0.275,0 -0.5,0.225 -0.5,0.5 0,0.275 0.225,0.5 0.5,0.5 0.275,0 0.5,-0.225 0.5,-0.5 z m -2.0000005,-1 c 0,-0.275 -0.225,-0.5 -0.5,-0.5 -0.275,0 -0.5,0.225 -0.5,0.5 0,0.275 0.225,0.5 0.5,0.5 0.275,0 0.5,-0.225 0.5,-0.5 z m -177,-1.5 c 0,-0.55 -0.19844,-1 -0.44098,-1 -0.24254,0 -0.7191,0.45 -1.05902,1 -0.33992,0.55 -0.14148,1 0.44098,1 0.58246,0 1.05902,-0.45 1.05902,-1 z m 51,0.5 c 0,-0.275 -0.225,-0.5 -0.5,-0.5 -0.275,0 -0.5,0.225 -0.5,0.5 0,0.275 0.225,0.5 0.5,0.5 0.275,0 0.5,-0.225 0.5,-0.5 z m 150.183334,-1.71667 c -0.717563,-0.71756 -1.183334,-0.7766 -1.183334,-0.15 0,0.56833 0.3,1.33333 0.666667,1.7 0.366667,0.36667 0.899167,0.43417 1.183333,0.15 0.284167,-0.28417 -0.01583,-1.04917 -0.666666,-1.7 z m 2.816666,1.71667 c 0,-0.275 -0.225,-0.5 -0.5,-0.5 -0.275,0 -0.5,0.225 -0.5,0.5 0,0.275 0.225,0.5 0.5,0.5 0.275,0 0.5,-0.225 0.5,-0.5 z m -209.64692,-2.50784 c 0.46919,-0.43907 -0.97064,-3.48387 -3.19963,-6.7662 -3.49738,-5.15012 -4.40047,-5.9014 -6.59064,-5.48272 -3.00781,0.57498 -4.5009,-2.01147 -2.76541,-4.79043 0.86655,-1.38757 0.76181,-2.07375 -0.47297,-3.09853 -1.36345,-1.13155 -2.04796,-0.78187 -4.87789,2.49188 -4.18254,4.83848 -6.61417,9.96146 -7.20149,15.17213 l -0.46198,4.09862 12.35847,-0.41321 c 6.79715,-0.22727 12.74235,-0.77246 13.21154,-1.21154 z m 225.07345,-8.99216 c 8.457374,-16.564 9.20771,-20.42187 2.043237,-10.50536 -2.183372,3.02206 -4.698387,5.49706 -5.588924,5.5 -1.799948,0.006 -2.861735,4.47154 -2.854524,12.00536 0.0051,5.32936 0.231315,5.08195 6.400211,-7 z m -209.17653,9.29426 c -1.2375,-0.23835 -3.2625,-0.23835 -4.5,0 -1.2375,0.23836 -0.225,0.43337 2.25,0.43337 2.475,0 3.4875,-0.19501 2.25,-0.43337 z m 171.4166671,0.0391 c -0.3666666,-0.36667 -0.9666666,-0.36667 -1.3333333,0 -0.3666667,0.36667 -0.066667,0.66667 0.6666667,0.66667 0.7333333,0 1.0333333,-0.3 0.6666666,-0.66667 z M -133.53503,166.32605 c 0.78169,-5.9e-4 3.13822,-2.31293 5.23673,-5.13853 l 3.81548,-5.13744 -2.31376,-4.36148 c -2.56602,-4.837 -2.9791,-5.0567 -5.24576,-2.79004 -1.15249,1.15249 -1.57551,3.61849 -1.58674,9.25 -0.01,4.89216 -0.33907,7.16715 -0.90748,6.26925 -0.49069,-0.77512 -0.66066,-2.01262 -0.3777,-2.75 0.28296,-0.73737 -0.0102,-1.34068 -0.65154,-1.34068 -0.68411,0 -0.84211,-0.51661 -0.38231,-1.25 1.0885,-1.73616 1.64951,-6.39851 0.64961,-5.39861 -0.4484,0.4484 -0.87152,1.22777 -0.94027,1.73194 -0.0688,0.50417 -0.22947,1.02917 -0.35715,1.16667 -0.71158,0.76627 -0.51741,7.94125 0.22736,8.40155 0.48679,0.30085 0.0683,1.51483 -0.93007,2.69772 l -1.81514,2.15073 2.07874,-1.75 c 1.14331,-0.9625 2.71831,-1.75049 3.5,-1.75108 z m -3.07874,-2.49892 c 0,-0.275 0.225,-0.5 0.5,-0.5 0.275,0 0.5,0.225 0.5,0.5 0,0.275 -0.225,0.5 -0.5,0.5 -0.275,0 -0.5,-0.225 -0.5,-0.5 z m 0,-2 c 0,-0.275 0.225,-0.5 0.5,-0.5 0.275,0 0.5,0.225 0.5,0.5 0,0.275 -0.225,0.5 -0.5,0.5 -0.275,0 -0.5,-0.225 -0.5,-0.5 z m 0,-4 c 0,-0.275 0.225,-0.5 0.5,-0.5 0.275,0 0.5,0.225 0.5,0.5 0,0.275 -0.225,0.5 -0.5,0.5 -0.275,0 -0.5,-0.225 -0.5,-0.5 z m 128.0000005,11 c 0,-0.275 -0.225,-0.5 -0.5,-0.5 -0.275,0 -0.5,0.225 -0.5,0.5 0,0.275 0.225,0.5 0.5,0.5 0.275,0 0.5,-0.225 0.5,-0.5 z m 18,0 c 0,-0.275 -0.225,-0.5 -0.5,-0.5 -0.275,0 -0.5,0.225 -0.5,0.5 0,0.275 0.225,0.5 0.5,0.5 0.275,0 0.5,-0.225 0.5,-0.5 z m -193.3168905,-2.6875 c -0.31922,-0.79774 -0.55618,-0.56078 -0.60416,0.60416 -0.0434,1.05417 0.19293,1.6448 0.52522,1.3125 0.33229,-0.33229 0.36782,-1.19479 0.0789,-1.91666 z m 2.31689,1.6875 c 0,-0.275 -0.225,-0.5 -0.5,-0.5 -0.275,0 -0.5,0.225 -0.5,0.5 0,0.275 0.225,0.5 0.5,0.5 0.275,0 0.5,-0.225 0.5,-0.5 z m 3.03048,-4.86952 c -0.70731,-0.70731 -1.0106,0.0515 -0.96709,2.41952 l 0.0634,3.45 0.9671,-2.41952 c 0.64038,-1.60213 0.61897,-2.76764 -0.0634,-3.45 z m 2.63619,3.70285 c -0.36667,-0.36667 -0.66667,-0.0667 -0.66667,0.66667 0,0.73333 0.3,1.03333 0.66667,0.66666 0.36666,-0.36666 0.36666,-0.96666 0,-1.33333 z m 9.33333,-1.33333 c 0,-1.65 -0.45,-3 -1,-3 -1.11228,0 -1.38019,4.28647 -0.33333,5.33333 1.12977,1.12977 1.33333,0.77353 1.33333,-2.33333 z m 17.49746,-7.78267 c -0.77872,-9.61985 -1.67078,-16.67402 -2.22239,-17.5741 -0.92702,-1.51263 -2.24397,1.74046 -2.25976,5.58202 l -0.0153,3.72525 -2.5,-0.9505 c -3.26855,-1.2427 -3.29058,0.36281 -0.0462,3.36956 2.11292,1.95819 2.48856,3.28686 2.7043,9.56539 l 0.25056,7.29132 2.27583,-2.64581 c 1.94991,-2.26691 2.20955,-3.46456 1.81301,-8.36313 z m -3.49746,5.90511 c 0,-0.48265 0.74867,-1.49515 1.66372,-2.25 1.5086,-1.24448 1.55194,-1.16266 0.46482,0.87756 -1.23991,2.32696 -2.12854,2.89993 -2.12854,1.37244 z m 0.33333,-11.57845 c 0,-0.80081 0.38234,-1.21972 0.84965,-0.93091 0.4673,0.28881 0.59075,0.94402 0.27432,1.45602 -0.80863,1.30838 -1.12397,1.16105 -1.12397,-0.52511 z m 164.66667,15.95601 c 0,-0.275 -0.225,-0.5 -0.5,-0.5 -0.275,0 -0.5,0.225 -0.5,0.5 0,0.275 0.225,0.5 0.5,0.5 0.275,0 0.5,-0.225 0.5,-0.5 z m -185,-3 c 0,-1.375 -0.45,-2.5 -1,-2.5 -0.55,0 -1,1.125 -1,2.5 0,1.375 0.45,2.5 1,2.5 0.55,0 1,-1.125 1,-2.5 z m 2.5808,-2.25253 c -1.08935,-1.08936 -1.50282,0.33507 -0.81164,2.7962 l 0.68983,2.45633 0.35131,-2.33587 c 0.19322,-1.28472 0.0899,-2.59722 -0.2295,-2.91666 z m 6.4192,2.25253 c 0,-1.375 -0.3375,-2.5 -0.75,-2.5 -0.4125,0 -0.75,1.125 -0.75,2.5 0,1.375 0.3375,2.5 0.75,2.5 0.4125,0 0.75,-1.125 0.75,-2.5 z m 3.03048,-2.86952 c -0.70731,-0.70731 -1.0106,0.0515 -0.96709,2.41952 l 0.0634,3.45 0.9671,-2.41952 c 0.64038,-1.60213 0.61897,-2.76764 -0.0634,-3.45 z m 132.96952,4.86952 c 0,-0.275 -0.225,-0.5 -0.5,-0.5 -0.275,0 -0.5,0.225 -0.5,0.5 0,0.275 0.225,0.5 0.5,0.5 0.275,0 0.5,-0.225 0.5,-0.5 z m -159.65066,-1.96798 c 0.30982,-0.80738 0.13297,-1.73394 -0.39301,-2.05901 -0.52598,-0.32508 -0.95633,0.33551 -0.95633,1.46797 0,2.41457 0.55611,2.65816 1.34934,0.59104 z m 187.65066047,0.96798 c 0,-0.275 -0.225,-0.5 -0.5,-0.5 -0.275,0 -0.5,0.225 -0.5,0.5 0,0.275 0.225,0.5 0.5,0.5 0.275,0 0.5,-0.225 0.5,-0.5 z m 10.99999953,0 c 0,-0.275 -0.225,-0.5 -0.5,-0.5 -0.275,0 -0.5,0.225 -0.5,0.5 0,0.275 0.225,0.5 0.5,0.5 0.275,0 0.5,-0.225 0.5,-0.5 z m -193.31689,-2.6875 c -0.31922,-0.79774 -0.55618,-0.56078 -0.60416,0.60416 -0.0434,1.05417 0.19293,1.6448 0.52522,1.3125 0.33229,-0.33229 0.36782,-1.19479 0.0789,-1.91666 z m 179.9835571,1.52083 c -0.3666666,-0.36667 -0.9666666,-0.36667 -1.3333333,0 -0.3666667,0.36667 -0.066667,0.66667 0.6666667,0.66667 0.7333333,0 1.0333333,-0.3 0.6666666,-0.66667 z m 15.3333329,0.16667 c 0,-0.275 -0.225,-0.5 -0.5,-0.5 -0.275,0 -0.5,0.225 -0.5,0.5 0,0.275 0.225,0.5 0.5,0.5 0.275,0 0.5,-0.225 0.5,-0.5 z m -17.9999995,-1 c 0,-0.275 -0.225,-0.5 -0.5,-0.5 -0.275,0 -0.5,0.225 -0.5,0.5 0,0.275 0.225,0.5 0.5,0.5 0.275,0 0.5,-0.225 0.5,-0.5 z m 12,0 c 0,-0.275 -0.225,-0.5 -0.5,-0.5 -0.275,0 -0.5,0.225 -0.5,0.5 0,0.275 0.225,0.5 0.5,0.5 0.275,0 0.5,-0.225 0.5,-0.5 z m 3.4445765,-3.86481 c -0.366375,-1.45975 -1.1358135,-2.94437 -1.7098645,-3.29915 -0.6549221,-0.40476 -0.7388039,-0.15168 -0.2251756,0.67939 0.5943455,0.96167 0.362759,1.14954 -0.8454915,0.68589 -2.2408123,-0.85988 -2.1059382,0.85678 0.2526217,3.21534 1.0541667,1.05417 1.7994789,2.12292 1.65625,2.375 -0.1432291,0.25209 0.1441809,0.12968 0.6386889,-0.27202 0.494508,-0.40169 0.599345,-1.9247 0.232971,-3.38445 z m -37.893325,0.74606 c -0.156156,-2.92326 -1.132732,-3.91428 -1.896328,-1.92438 -0.325685,0.84872 -0.101177,1.54313 0.498906,1.54313 0.780326,0 0.775909,0.37973 -0.01551,1.33333 -0.827148,0.99665 -0.773055,1.33333 0.214222,1.33333 0.74472,0 1.267544,-0.99679 1.198708,-2.28541 z m -159.301252,-0.087 c -1.2375,-0.23835 -3.2625,-0.23835 -4.5,0 -1.2375,0.23836 -0.225,0.43337 2.25,0.43337 2.475,0 3.4875,-0.19501 2.25,-0.43337 z m 11.75,-0.17663 -4.5,-0.53295 6.5,-0.64416 6.5,-0.64416 -7.42001,0.10182 c -4.97227,0.0682 -7.55636,0.51417 -7.83333,1.35182 -0.30319,0.91692 1.14104,1.20344 5.42001,1.07529 l 5.83333,-0.17471 z m 6,0.38237 c 0,-0.275 -0.225,-0.5 -0.5,-0.5 -0.275,0 -0.5,0.225 -0.5,0.5 0,0.275 0.225,0.5 0.5,0.5 0.275,0 0.5,-0.225 0.5,-0.5 z m 12.9045,-7.11507 c -0.682,-0.82177 -2.00797,-1.90513 -2.94659,-2.40746 -1.34419,-0.71939 -1.14931,0.13876 0.91776,4.04122 2.36795,4.47051 2.65581,4.70571 2.94659,2.40745 0.17724,-1.4009 -0.23575,-3.21944 -0.91776,-4.04121 z m -39.87469,3.67076 c -0.57231,-1.06937 -1.55767,-2.2639 -2.1897,-2.65451 -0.77001,-0.47589 -0.88183,-0.24683 -0.33892,0.69431 2.14477,3.71799 4.40855,5.47289 2.52862,1.9602 z m 7.73185,1.25723 c -0.95609,-0.2503 -2.75609,-0.25938 -4,-0.0202 -1.24391,0.23919 -0.46166,0.44397 1.73834,0.45507 2.2,0.0111 3.21775,-0.1846 2.26166,-0.43489 z m -3.76166,-1.81292 c 0,-0.275 -0.225,-0.5 -0.5,-0.5 -0.275,0 -0.5,0.225 -0.5,0.5 0,0.275 0.225,0.5 0.5,0.5 0.275,0 0.5,-0.225 0.5,-0.5 z m 5,-0.73406 c 0,-0.49539 0.86213,-0.62709 1.91584,-0.29265 1.05372,0.33443 2.18286,0.17602 2.50922,-0.35203 0.3413,-0.55225 -2.13978,-1.2528 -5.84054,-1.64911 -7.34007,-0.78606 -10.96464,-0.0991 -5.33452,1.01102 2.0625,0.40667 3.75,1.06433 3.75,1.46145 0,0.39713 0.675,0.72204 1.5,0.72204 0.825,0 1.5,-0.40532 1.5,-0.90072 z m 8,0.73406 c 0,-0.275 -0.225,-0.5 -0.5,-0.5 -0.275,0 -0.5,0.225 -0.5,0.5 0,0.275 0.225,0.5 0.5,0.5 0.275,0 0.5,-0.225 0.5,-0.5 z m 3.55,-0.44272 c 0.5225,-0.51849 3.425,-1.11025 6.45,-1.31502 5.05704,-0.34231 4.9161,-0.3872 -1.75,-0.55728 -5.85999,-0.14952 -7.25,0.10261 -7.25,1.31502 0,1.70252 1.14397,1.95253 2.55,0.55728 z m 3.45,0.44272 c 0,-0.275 -0.225,-0.5 -0.5,-0.5 -0.275,0 -0.5,0.225 -0.5,0.5 0,0.275 0.225,0.5 0.5,0.5 0.275,0 0.5,-0.225 0.5,-0.5 z m -30,-1.37756 c 0,-1.31135 -2.58498,-3.20413 -3.34201,-2.4471 -1.36904,1.36904 -0.57965,3.32466 1.34201,3.32466 1.1,0 2,-0.3949 2,-0.87756 z m 175,0.37756 c 0,-0.275 -0.225,-0.5 -0.5,-0.5 -0.275,0 -0.5,0.225 -0.5,0.5 0,0.275 0.225,0.5 0.5,0.5 0.275,0 0.5,-0.225 0.5,-0.5 z m 30.0000005,0 c 0,-0.275 -0.225,-0.5 -0.5,-0.5 -0.275,0 -0.5,0.225 -0.5,0.5 0,0.275 0.225,0.5 0.5,0.5 0.275,0 0.5,-0.225 0.5,-0.5 z m 6,-0.94099 c 0,-0.24254 -0.5195289,-0.76207 -1.1545085,-1.1545 -0.7152994,-0.44208 -0.8830623,-0.27432 -0.440983,0.44098 0.7124403,1.15275 1.5954915,1.54766 1.5954915,0.71352 z M -26.61377,153.82713 c 0,-0.275 -0.225,-0.5 -0.5,-0.5 -0.275,0 -0.5,0.225 -0.5,0.5 0,0.275 0.225,0.5 0.5,0.5 0.275,0 0.5,-0.225 0.5,-0.5 z m 60.024935,-5.03232 c 2.347485,-3.04278 4.931146,-5.90335 5.74147,-6.35683 2.90034,-1.62311 0.630028,-14.8404 -6.030932,-35.11085 l -2.135929,-6.5 -0.719388,4 c -0.395663,2.2 -0.833689,7.83409 -0.973391,12.5202 -0.206876,6.93938 0.09402,9.05136 1.621745,11.38297 l 1.87575,2.86275 -2.70213,2.1546 c -2.315,1.84592 -2.70213,2.90138 -2.70213,7.36704 0,6.61947 1.130221,6.68382 8.121513,0.46244 3.733748,-3.32258 4.642362,-3.84847 3.023567,-1.75 -3.526259,4.57114 -9.026536,8.75946 -10.673378,8.12751 -1.121285,-0.43028 -1.471702,0.26114 -1.471702,2.90387 0,5.00677 2.030245,4.41034 7.024935,-2.0637 z m -201.297235,3.80252 c -2.07477,-0.21648 -5.22477,-0.21285 -7,0.008 -1.77524,0.22091 -0.0777,0.39802 3.7723,0.39359 3.85,-0.004 5.30246,-0.18519 3.2277,-0.40166 z m 178.938967,0.0631 c -0.366667,-0.36667 -0.966667,-0.36667 -1.3333332,0 -0.3666667,0.36667 -0.066667,0.66667 0.6666662,0.66667 0.733334,0 1.033334,-0.3 0.666667,-0.66667 z m -207.666667,-0.77432 c 0,-0.24254 -0.51953,-0.76207 -1.15451,-1.1545 -0.7153,-0.44208 -0.88306,-0.27432 -0.44098,0.44098 0.71244,1.15275 1.59549,1.54766 1.59549,0.71352 z m 11.7277,-0.28881 c -2.07477,-0.21648 -5.22477,-0.21285 -7,0.008 -1.77524,0.22091 -0.0777,0.39802 3.7723,0.39359 3.85,-0.004 5.30246,-0.18519 3.2277,-0.40166 z m 54.52167,-6.98261 c -0.32634,-0.91062 -0.99138,-0.84752 -2.67176,0.25351 -1.23049,0.80625 -2.61099,1.12683 -3.06776,0.7124 -0.45678,-0.41442 -0.53831,-0.24199 -0.18119,0.38319 0.35713,0.62518 -0.0207,1.69278 -0.83967,2.37245 -0.81894,0.67966 -1.48899,1.84933 -1.48899,2.59927 0,0.86387 1.59107,0.17773 4.34194,-1.87244 2.38806,-1.77979 4.14641,-3.78155 3.90743,-4.44838 z m -4.24937,7.21241 c 0,-0.275 -0.225,-0.5 -0.5,-0.5 -0.275,0 -0.5,0.225 -0.5,0.5 0,0.275 0.225,0.5 0.5,0.5 0.275,0 0.5,-0.225 0.5,-0.5 z M 5.9126919,150.52026 c -0.3078871,-0.30789 -1.1147948,-6.4e-4 -1.7931281,0.68278 -0.9802673,0.98762 -0.8654037,1.10248 0.5597947,0.55979 0.9862205,-0.37553 1.5412205,-0.93469 1.2333334,-1.24257 z m -179.8597919,0.1402 c -0.36667,-0.36667 -0.96667,-0.36667 -1.33334,0 -0.36666,0.36667 -0.0667,0.66667 0.66667,0.66667 0.73333,0 1.03333,-0.3 0.66667,-0.66667 z m 198.264289,-9.83333 c -1.069999,-3.46734 -1.472413,-5.37309 -1.847625,-8.75 -0.04583,-0.4125 -0.844342,-0.75 -1.774463,-0.75 -1.461226,0 -1.493585,0.16993 -0.238027,1.25 0.799207,0.6875 1.253915,1.1312 1.010463,0.986 -0.625141,-0.37285 -6.081307,4.96649 -6.081307,5.95109 0,0.4471 0.90489,0.81291 2.010866,0.81291 1.450618,0 2.774016,1.56466 4.75,5.61596 l 2.739134,5.61595 0.332668,-3.36595 c 0.182967,-1.85128 -0.222802,-5.16596 -0.901709,-7.36596 z m -226.543359,6.96879 c -0.91219,-1.39217 -1.8948,-2.29492 -2.18359,-2.00613 -0.48093,0.48092 2.62488,4.53734 3.47403,4.53734 0.20244,0 -0.37826,-1.13905 -1.29044,-2.53121 z m 10.6124,1.59102 c -0.825,-0.48366 -1.95,-0.95824 -2.5,-1.05463 -0.55,-0.0964 -1.4875,-0.57985 -2.08333,-1.07434 -0.68971,-0.57241 -1.08334,-0.39236 -1.08334,0.49552 0,0.80818 0.76207,1.24785 1.81231,1.04559 0.99677,-0.19196 2.07332,0.0733 2.39235,0.58951 0.31902,0.5162 1.11599,0.92485 1.77103,0.90813 0.70255,-0.0179 0.57582,-0.39105 -0.30902,-0.90978 z m 5,0.44019 c 0,-0.275 -0.225,-0.5 -0.5,-0.5 -0.275,0 -0.5,0.225 -0.5,0.5 0,0.275 0.225,0.5 0.5,0.5 0.275,0 0.5,-0.225 0.5,-0.5 z M 2.5620757,149.45697 c -0.9836713,-0.62367 -0.4694059,-1.38679 2,-2.96784 1.8282851,-1.17057 2.6491548,-2.14278 1.8241548,-2.16047 -1.3333334,-0.0286 -1.3333334,-0.13987 0,-1.00153 0.825,-0.53316 1.05,-0.96938 0.5,-0.96938 -0.55,0 -1.675,0.43622 -2.5,0.96938 -1.268872,0.82001 -1.2774577,0.97173 -0.05572,0.98468 0.7943538,0.008 -0.018354,1.09441 -1.8060182,2.41331 -2.1518817,1.58761 -2.80893784,2.57476 -1.94427964,2.92105 2.11274604,0.84616 3.41829464,0.72152 1.98186344,-0.1892 z M 13.38623,149.324 c 0,-1.57677 -1.748254,-2.00513 -2.835713,-0.69483 -0.7983162,0.96192 -0.5779546,1.31652 0.886694,1.42684 1.071961,0.0808 1.949019,-0.24866 1.949019,-0.73201 z m -2,-0.49687 c 0,-0.275 0.225,-0.5 0.5,-0.5 0.275,0 0.5,0.225 0.5,0.5 0,0.275 -0.225,0.5 -0.5,0.5 -0.275,0 -0.5,-0.225 -0.5,-0.5 z m -210,0 c 0,-0.275 -0.225,-0.5 -0.5,-0.5 -0.275,0 -0.5,0.225 -0.5,0.5 0,0.275 0.225,0.5 0.5,0.5 0.275,0 0.5,-0.225 0.5,-0.5 z m 109,0 c 0,-0.275 -0.225,-0.5 -0.5,-0.5 -0.275,0 -0.5,0.225 -0.5,0.5 0,0.275 0.225,0.5 0.5,0.5 0.275,0 0.5,-0.225 0.5,-0.5 z m -90.75,-1.2234 c -1.7875,-0.22182 -4.7125,-0.22182 -6.5,0 -1.7875,0.22183 -0.325,0.40332 3.25,0.40332 3.575,0 5.0375,-0.18149 3.25,-0.40332 z m 10.75,0.25858 c 0,-0.25565 -0.85502,-0.92241 -1.90004,-1.48168 -1.4384,-0.76981 -2.03818,-0.65688 -2.46861,0.46481 -0.40766,1.06232 0.13011,1.48169 1.90004,1.48169 1.35773,0 2.46861,-0.20917 2.46861,-0.46482 z m 9.80687,-2.06164 c -0.30788,-0.30789 -0.86705,0.24711 -1.24258,1.23333 -0.54268,1.4252 -0.42782,1.54006 0.5598,0.55979 0.68342,-0.67833 0.99067,-1.48524 0.68278,-1.79312 z m 166.1931305,2.02646 c 0,-0.275 -0.225,-0.5 -0.5,-0.5 -0.275,0 -0.5,0.225 -0.5,0.5 0,0.275 0.225,0.5 0.5,0.5 0.275,0 0.5,-0.225 0.5,-0.5 z m -207.3168905,-2.6875 c -0.31922,-0.79774 -0.55618,-0.56078 -0.60416,0.60416 -0.0434,1.05417 0.19293,1.6448 0.52522,1.3125 0.33229,-0.33229 0.36782,-1.19479 0.0789,-1.91666 z m 9.31689,1.80994 c 0,-0.20765 -0.7875,-0.99515 -1.75,-1.75 -1.58606,-1.24387 -1.62143,-1.2085 -0.37755,0.37756 1.30636,1.66575 2.12755,2.19548 2.12755,1.37244 z m 190.4014411,-1.2262 c 0.36253759,-0.94475 1.24965892,-1.36037 2.15892656,-1.01145 0.84892964,0.32576 1.28079694,0.16722 0.95970514,-0.35231 -0.3210918,-0.51954 0.5555362,-1.69114 1.9480622,-2.60356 2.5318289,-1.65892 3.3721247,-4.79158 1.5820388,-5.89791 -0.5224047,-0.32287 -1.4511246,0.34965 -2.0638219,1.49449 -1.1491849,2.14727 -6.6396184,5.96415 -8.5887087,5.97076 -0.6528467,0.002 -0.2450744,-1.81405 1,-4.45411 1.3248375,-2.80919 2.6066531,-4.28401 3.46593686,-3.9878 1.0694265,0.36865 1.2119784,-0.34154 0.66081531,-3.29215 -0.38652036,-2.06921 -0.89834546,-3.96042 -1.13738907,-4.20268 -0.9435987,-0.9563 -3.1826158,2.74819 -5.3319927,8.82188 l -2.2582719,6.3814 2.8516294,2.33263 c 3.4187462,2.79654 3.9527136,2.88651 4.75307,0.80081 z m -178.9014411,-0.39624 -4,-0.71619 4,-0.244 4,-0.24399 -3.18285,-1.02331 c -2.68809,-0.86425 -3.60286,-0.69294 -5.88486,1.10209 l -2.70201,2.1254 5.88486,-0.14191 5.88486,-0.1419 z m 193,0 c 0.339919,-0.55 0.393034,-1 0.118034,-1 -0.275,0 -0.778115,0.45 -1.118034,1 -0.339918,0.55 -0.393034,1 -0.118034,1 0.275,0 0.778116,-0.45 1.118034,-1 z m 2.5,0.5 c 0,-0.275 -0.225,-0.5 -0.5,-0.5 -0.275,0 -0.5,0.225 -0.5,0.5 0,0.275 0.225,0.5 0.5,0.5 0.275,0 0.5,-0.225 0.5,-0.5 z m -212.5,-1.5 c 0.33992,-0.55 -0.0835,-1 -0.94098,-1 -0.85746,0 -1.55902,0.45 -1.55902,1 0,0.55 0.42344,1 0.94098,1 0.51754,0 1.2191,-0.45 1.55902,-1 z m 31.66517,-2.32419 c -1.20091,-1.2783 -1.95435,-2.6283 -1.67432,-3 0.28003,-0.3717 0.22245,-0.46411 -0.12797,-0.20536 -0.35042,0.25875 -1.95133,-0.46534 -3.55758,-1.60909 -1.60625,-1.14375 -3.20489,-1.7951 -3.55254,-1.44745 -0.34765,0.34765 0.36078,1.32753 1.5743,2.17751 1.21352,0.84998 1.96653,1.93354 1.67336,2.4079 -0.29317,0.47436 -0.006,1.1881 0.63778,1.58609 0.73122,0.45192 0.90292,0.29014 0.45729,-0.4309 -1.08557,-1.75649 0.29897,-1.38269 3.13164,0.84549 3.4164,2.68734 4.11852,2.52905 1.43804,-0.32419 z m 30.83483,1.82419 c 0,-0.275 -0.225,-0.5 -0.5,-0.5 -0.275,0 -0.5,0.225 -0.5,0.5 0,0.275 0.225,0.5 0.5,0.5 0.275,0 0.5,-0.225 0.5,-0.5 z m 144.0000005,0 c 0,-0.275 -0.225,-0.5 -0.5,-0.5 -0.275,0 -0.5,0.225 -0.5,0.5 0,0.275 0.225,0.5 0.5,0.5 0.275,0 0.5,-0.225 0.5,-0.5 z m -196.5000005,-1.5 c 0.33992,-0.55 -0.11008,-1 -1,-1 -0.88992,0 -1.33992,0.45 -1,1 0.33992,0.55 0.78992,1 1,1 0.21008,0 0.66008,-0.45 1,-1 z m 32.16228,-2.25 c -0.27741,-0.6875 -0.50438,-0.125 -0.50438,1.25 0,1.375 0.22697,1.9375 0.50438,1.25 0.27741,-0.6875 0.27741,-1.8125 0,-2.5 z m 18.90566,-3.7169 -0.064,-5.89415 -1.74844,1.58231 c -1.25943,1.13978 -1.45616,1.93449 -0.70341,2.8415 0.5926,0.71404 0.65711,1.49893 0.14901,1.81295 -0.4928,0.30457 -0.78429,1.80713 -0.64775,3.33903 0.31052,3.48373 0.20197,3.31638 1.76262,2.7175 0.89282,-0.3426 1.29539,-2.40022 1.25197,-6.39914 z m -2.12878,3.52774 c 0.0724,-1.35575 0.38405,-2.71739 0.69252,-3.02585 0.30846,-0.30847 0.50159,0.54841 0.42917,1.90416 -0.0724,1.35576 -0.38406,2.71739 -0.69253,3.02586 -0.30846,0.30846 -0.50159,-0.54841 -0.42916,-1.90417 z m 0.56084,-5.06084 c 0,-0.275 0.225,-0.5 0.5,-0.5 0.275,0 0.5,0.225 0.5,0.5 0,0.275 -0.225,0.5 -0.5,0.5 -0.275,0 -0.5,-0.225 -0.5,-0.5 z m 6.34629,-1.32483 c 0.45862,-6.33528 0.31001,-8.2279 -0.62182,-7.91929 -0.81324,0.26933 -1.32269,3.39849 -1.51694,9.31729 -0.36854,11.22969 1.30376,10.1366 2.13876,-1.398 z m -28.34629,0.26268 c 0,-4.64082 -0.26668,-8.43785 -0.59261,-8.43785 -1.62817,0 -10.22975,7.70042 -10.05325,9 0.32519,2.39436 1.69917,4.08508 2.77797,3.41835 1.10225,-0.68123 5.059,2.46341 4.41359,3.50771 -0.22393,0.36232 0.46168,0.72421 1.52358,0.8042 1.76657,0.13307 1.93072,-0.57193 1.93072,-8.29241 z m -9.59549,2.40764 c -0.44208,-0.7153 -0.27432,-0.88306 0.44098,-0.44098 1.15275,0.71244 1.54767,1.59549 0.71353,1.59549 -0.24254,0 -0.76207,-0.51953 -1.15451,-1.15451 z m 161.5965443,-0.34549 c 0.6834623,-2.2 2.1335494,-5.62143 3.2224157,-7.60316 l 1.9797569,-3.60317 -1.8119293,-3.39683 -1.8119294,-3.39684 -0.8109324,7 c -0.4460128,3.85 -1.6818227,8.7621 -2.7462441,10.91578 -1.0644217,2.15367 -1.6790697,4.33038 -1.3658837,4.83713 0.832716,1.34736 1.9371805,-0.22209 3.3447463,-4.75291 z m 5.9683206,2 c 0,-0.55 -0.4362185,-0.325 -0.9693744,0.5 -0.533156,0.825 -0.9693745,1.95 -0.9693745,2.5 0,0.55 0.4362185,0.325 0.9693745,-0.5 0.5331559,-0.825 0.9693744,-1.95 0.9693744,-2.5 z m 28.0306251,0.8 c 0,-1.85714 -0.322405,-2.3776 -1.032782,-1.66722 -0.56803,0.56803 -0.744886,1.78303 -0.393011,2.7 0.926294,2.41388 1.425793,2.05207 1.425793,-1.03278 z m -199,1.25901 c 0,-0.24254 -0.51953,-0.76207 -1.15451,-1.1545 -0.7153,-0.44208 -0.88306,-0.27432 -0.44098,0.44098 0.71244,1.15275 1.59549,1.54766 1.59549,0.71352 z m 14.73073,-12.83919 c -0.20972,-2.3209 -0.37882,-0.16982 -0.37577,4.78018 0.003,4.95 0.17464,6.84892 0.38131,4.21982 0.20668,-2.62909 0.20419,-6.67909 -0.006,-9 z m 143.926791,12.60436 c -0.371697,-0.37169 0.340803,-1.75877 1.583333,-3.08238 1.242531,-1.32361 1.809146,-2.31621 1.259146,-2.20577 -2.592663,0.52063 -2.780044,-0.25567 -0.5,-2.07143 1.8324578,-1.45931 1.9889178,-1.80852 0.585956,-1.30782 -1.430414,0.51049 -1.707217,0.34844 -1.095492,-0.64135 0.548704,-0.88782 0.432573,-1.0859 -0.352267,-0.60084 -0.643951,0.39798 -0.93114,1.11142 -0.638197,1.58541 0.292944,0.47399 0.05343,1.15796 -0.532246,1.51993 -0.7405,0.45765 -0.708171,1.08792 0.106133,2.0691 1.05273,1.26846 0.627418,1.80764 -1.230851,1.5604 -0.361331,-0.0481 -0.508261,0.68614 -0.326511,1.63158 0.44432,2.31131 0.396466,2.21899 1.150142,2.21899 0.366667,0 0.362551,-0.30412 -0.0091,-0.67582 z M -204.4917,136.65213 c -1.17884,-2.02722 -1.46351,-1.37836 -0.49853,1.13634 0.34295,0.8937 0.83419,1.41426 1.09166,1.15679 0.25747,-0.25747 -0.009,-1.28938 -0.59313,-2.29313 z m 28.5446,1.00833 c -0.36667,-0.36667 -0.66667,-0.0667 -0.66667,0.66667 0,0.73333 0.3,1.03333 0.66667,0.66666 0.36666,-0.36666 0.36666,-0.96666 0,-1.33333 z m -24.65721,-3.31567 c -0.61614,-1.15126 -0.84085,-3.08871 -0.49935,-4.30544 0.4884,-1.74012 0.39679,-1.89211 -0.42929,-0.71222 -0.91122,1.30149 -1.05222,1.27622 -1.06551,-0.19099 -0.0326,-3.60109 1.73348,-2.47171 4.29175,2.7445 2.56412,5.22813 3.94771,6.46132 5.12043,4.56381 0.30004,-0.48547 -0.34841,-3.48091 -1.44098,-6.65655 -2.38861,-6.94259 -2.36628,-6.54373 -0.32246,-5.75945 1.11888,0.42936 1.42716,0.25527 0.94098,-0.53138 -0.8527,-1.3797 -1.62397,-1.44421 -3.44761,-0.2884 -1.08059,0.68488 -0.83668,1.9203 1.25,6.33118 2.86099,6.04762 3.03911,6.78728 1.6345,6.78728 -1.33626,0 -6.09841,-15.41488 -4.89718,-15.85201 0.53201,-0.1936 -0.49534,-1.4311 -2.283,-2.75 -4.3002,-3.17258 -5.14103,-3.05701 -1.36174,0.18717 1.65,1.41638 2.23199,2.33574 1.29331,2.04304 -1.46011,-0.4553 -1.5536,-0.19621 -0.64712,1.79331 0.76398,1.67675 0.7343,2.93327 -0.10637,4.50409 -0.92655,1.73128 -0.81113,3.24583 0.56215,7.37649 0.95046,2.85885 1.90802,4.66035 2.12792,4.00335 0.2199,-0.65701 -0.1043,-2.13651 -0.72043,-3.28778 z m 2.11261,0.30734 c -1.17884,-2.02722 -1.46351,-1.37836 -0.49853,1.13634 0.34295,0.8937 0.83419,1.41426 1.09166,1.15679 0.25747,-0.25747 -0.009,-1.28938 -0.59313,-2.29313 z m 19.67215,1.10658 c 3.15958,-2.21306 1.67928,-3.77807 -1.59637,-1.68773 l -2.69785,1.72162 1.37245,-1.73273 c 0.89716,-1.13269 0.98373,-1.73274 0.25,-1.73274 -0.61735,0 -1.15688,0.3375 -1.19896,0.75 -0.0421,0.4125 -0.22726,1.5375 -0.41152,2.5 -0.41559,2.17097 1.33596,2.24524 4.28225,0.18158 z m 194.555894,-1.43158 c 0.823128,-1.65 1.261632,-3 0.974452,-3 -0.28718,0 -1.783235,1.35 -3.324566,3 -2.382526,2.5505 -2.52853,3 -0.974451,3 1.031832,0 2.479782,-1.30659 3.324565,-3 z m 28.316553,2.33333 c -0.366667,-0.36667 -0.966667,-0.36667 -1.333333,0 -0.366667,0.36667 -0.06667,0.66667 0.666666,0.66667 0.733334,0 1.033334,-0.3 0.666667,-0.66667 z m -230.582947,-1.93421 c 1.93007,-2.32559 1.9531,-4.13462 0.0714,-5.60543 -1.47938,-1.15634 -1.50939,-1.10789 -0.28265,0.45631 0.75484,0.9625 0.92244,1.75 0.37244,1.75 -1.30992,0 -3.38804,-2.52352 -2.66968,-3.24188 0.30682,-0.30682 0.008,-0.89744 -0.66319,-1.3125 -0.78026,-0.48223 -0.96347,-0.33788 -0.50751,0.39987 1.05541,1.70769 -0.95401,1.40225 -2.42351,-0.36838 -1.07011,-1.28941 -0.97389,-1.42826 0.62756,-0.90567 1.4995,0.48932 1.59051,0.40413 0.43919,-0.41113 -1.51373,-1.07188 -3.04775,-0.66126 -3.04775,0.8158 0,0.47194 0.88401,2.92038 1.96446,5.44098 2.05324,4.79 3.87998,5.6802 6.11926,2.98203 z m 1.91628,1.10088 c 0,-0.275 -0.225,-0.5 -0.5,-0.5 -0.275,0 -0.5,0.225 -0.5,0.5 0,0.275 0.225,0.5 0.5,0.5 0.275,0 0.5,-0.225 0.5,-0.5 z m 197.512363,-5.52742 c 1.42366,-3.15711 1.557457,-4.30276 0.612828,-5.24739 -0.944629,-0.94463 -1.390451,-0.91403 -2.041985,0.14018 -0.542844,0.87834 -1.6197834,1.0991 -3.0881881,0.63305 l -2.2546742,-0.71561 0.7272,4.85859 c 0.39996,2.67223 0.9484453,5.21795 1.2188561,5.65716 0.7974402,1.29522 2.8732792,-0.9957 4.8259632,-5.32598 z m -4.0123625,4.02742 c 0.3399187,-0.55 0.843034,-1 1.1180335,-1 0.275,0 0.221885,0.45 -0.1180335,1 -0.3399187,0.55 -0.843034,1 -1.118034,1 -0.275,0 -0.2218847,-0.45 0.118034,-1 z m -164.7702005,-8.7277 c -0.21648,-2.07477 -0.39722,-0.6223 -0.40166,3.2277 -0.004,3.85 0.17268,5.54753 0.39359,3.7723 0.22091,-1.77523 0.22454,-4.92523 0.008,-7 z m 4.2702,9.2277 c 0,-0.275 -0.225,-0.5 -0.5,-0.5 -0.275,0 -0.5,0.225 -0.5,0.5 0,0.275 0.225,0.5 0.5,0.5 0.275,0 0.5,-0.225 0.5,-0.5 z m -54.31689,-2.6875 c -0.31922,-0.79774 -0.55618,-0.56078 -0.60416,0.60416 -0.0434,1.05417 0.19293,1.6448 0.52522,1.3125 0.33229,-0.33229 0.36782,-1.19479 0.0789,-1.91666 z m 52.04029,-7.0625 c -0.22183,-1.7875 -0.40333,-0.325 -0.40333,3.25 0,3.575 0.1815,5.0375 0.40333,3.25 0.22182,-1.7875 0.22182,-4.7125 0,-6.5 z m -6.99602,-5.52523 c -0.80919,-1.01752 -1.38133,-0.94293 -2.83107,0.36907 -0.99931,0.90436 -1.72229,2.15321 -1.60662,2.77523 0.11567,0.62201 -0.4739,1.13922 -1.31016,1.14935 -2.3856,0.0289 -9.90052,6.52389 -9.31471,8.0505 0.36036,0.93908 2.893,-0.54388 8.29769,-4.85864 5.81523,-4.64252 7.52299,-6.53221 6.76487,-7.48551 z M 5.3862305,132.88614 c 0,-0.24254 -0.5195289,-0.76207 -1.1545085,-1.1545 -0.7152994,-0.44208 -0.8830623,-0.27432 -0.440983,0.44098 0.7124403,1.15275 1.5954915,1.54766 1.5954915,0.71352 z M 26.202351,130.8229 c -0.627551,-1.37732 -1.329363,-2.31586 -1.559581,-2.08565 -0.467048,0.46705 1.560473,4.58988 2.257205,4.58988 0.243858,0 -0.07007,-1.1269 -0.697624,-2.50423 z m -225.816121,1.00423 c 0,-0.275 -0.225,-0.5 -0.5,-0.5 -0.275,0 -0.5,0.225 -0.5,0.5 0,0.275 0.225,0.5 0.5,0.5 0.275,0 0.5,-0.225 0.5,-0.5 z m 17.95714,-3.91638 c -0.80143,-0.77114 -5.95714,-5.27466 -11.45714,-10.0078 -9.15254,-7.87642 -10.11126,-8.45615 -11.31287,-6.84077 -1.15177,1.54836 -0.84499,2.17261 2.5,5.08703 2.09708,1.82715 3.81287,3.70215 3.81287,4.16667 0,0.46452 0.40965,1.21958 0.91033,1.67791 0.52889,0.48417 0.60891,0.30958 0.19098,-0.41666 -1.29203,-2.24516 0.37482,-1.33469 7.69145,4.20126 4.59469,3.47645 7.55191,5.10406 8.16312,4.49286 0.61121,-0.61121 0.43053,-1.46634 -0.49874,-2.3605 z m 36.5346,-9.42522 c -1.47374,-1.47373 -4.73884,3.94109 -5.11314,8.47959 l -0.40098,4.86201 3.03071,-6.39715 c 1.66689,-3.51843 2.78442,-6.64343 2.48341,-6.94445 z m -61.52215,5.0916 c -0.0235,-5.223 -0.26901,-6.33979 -1.08513,-4.93668 -0.95259,1.63774 -0.34262,11.68668 0.70938,11.68668 0.22339,0 0.39248,-3.0375 0.37575,-6.75 z m 71.185,4.08333 c -0.007,-0.45833 0.74336,-1.73333 1.66667,-2.83333 l 1.67874,-2 -2.08333,1.75415 c -1.14584,0.96479 -2.08334,2.42729 -2.08334,3.25 0,0.82272 0.1875,1.30835 0.41667,1.07918 0.22917,-0.22917 0.41123,-0.79167 0.40459,-1.25 z m -38.54646,-10.99982 c 0.50585,-5.46333 0.98775,-7.04208 2.02771,-6.64301 0.75029,0.28791 1.36416,0.0253 1.36416,-0.58351 0,-0.60885 -0.9,-1.10699 -2,-1.10699 -1.70082,0 -2.01969,0.71054 -2.13164,4.75 l -0.13164,4.75 -0.61836,-3.5 c -0.46416,-2.62722 -1.11709,-3.5 -2.61836,-3.5 -1.1,0 -2.35117,-0.45 -2.78038,-1 -0.4292,-0.55 -0.50809,0.17707 -0.17529,1.61571 0.33279,1.43864 0.0921,4.52077 -0.53487,6.84916 -0.97992,3.63913 -0.89845,4.50031 0.58028,6.13429 2.38186,2.63193 0.58366,2.38869 -2.58132,-0.34916 -1.43055,-1.2375 -1.06747,-0.73544 0.80685,1.1157 l 3.40787,3.3657 2.36072,-2.3657 c 1.8601,-1.86402 2.50144,-3.88547 3.02427,-9.53219 z m 177.0749845,9.47899 c -0.3192264,-0.79774 -0.5561827,-0.56078 -0.6041667,0.60416 -0.043421,1.05417 0.1929277,1.6448 0.5252193,1.3125 0.3322917,-0.33229 0.367818,-1.19479 0.078947,-1.91666 z m -34.9802705,-1.41975 c 1.088707,-2.34572 0.914497,-2.855 -1.835939,-5.36713 -3.634217,-3.31935 -3.581534,-6.81586 0.133095,-8.83339 2.315733,-1.25774 2.33416,-1.32177 0.25,-0.86865 -1.2375,0.26905 -2.25,0.0813 -2.25,-0.4172 0,-1.38796 4.772267,-1.07737 5.279762,0.34362 0.245536,0.6875 0.743628,0.97691 1.106872,0.64313 1.475847,-1.35614 -0.721012,-3.89313 -3.371178,-3.89313 -3.168217,0 -5.513714,2.25917 -4.658716,4.48726 0.31927,0.83201 0.219818,1.51274 -0.221005,1.51274 -0.973414,0 -0.831575,3.06509 0.220623,4.76758 0.479137,0.77526 0.183368,1.23242 -0.797341,1.23242 -2.560873,0 -1.807891,4.2211 1.190983,6.67647 3.464716,2.83679 3.50563,2.83444 4.952844,-0.28372 z m -2.702844,1.10725 c 0,-0.275 0.225,-0.5 0.5,-0.5 0.275,0 0.5,0.225 0.5,0.5 0,0.275 -0.225,0.5 -0.5,0.5 -0.275,0 -0.5,-0.225 -0.5,-0.5 z m -2,-15 c 0,-0.275 0.225,-0.5 0.5,-0.5 0.275,0 0.5,0.225 0.5,0.5 0,0.275 -0.225,0.5 -0.5,0.5 -0.275,0 -0.5,-0.225 -0.5,-0.5 z m 37.00000047,15 c 0,-0.275 -0.225,-0.5 -0.5,-0.5 -0.275,0 -0.5,0.225 -0.5,0.5 0,0.275 0.225,0.5 0.5,0.5 0.275,0 0.5,-0.225 0.5,-0.5 z M 18.116741,124.7243 c -0.331552,-0.33155 -0.19269,-1.68155 0.308583,-3 0.845512,-2.22386 0.678227,-2.39607 -2.313844,-2.38186 -1.773887,0.008 -3.876216,0.42716 -4.671841,0.93052 -1.193795,0.75527 -1.019041,1.27104 1,2.95142 2.118942,1.76352 7.313001,3.13582 5.677102,1.49992 z m -185.730511,-3.63772 c 0,-1.20573 -0.55693,-0.90909 -2.59501,1.3822 l -1.90499,2.14166 2.25,-1.38221 c 1.2375,-0.76021 2.25,-1.72395 2.25,-2.14165 z m 158.0000005,2.74055 c 0,-0.275 -0.225,-0.5 -0.5000005,-0.5 -0.275,0 -0.5,0.225 -0.5,0.5 0,0.275 0.225,0.5 0.5,0.5 0.2750005,0 0.5000005,-0.225 0.5000005,-0.5 z m -4.5000005,-1.5 c -0.339918,-0.55 -1.434899,-1 -2.43329,-1 -0.998391,0 -3.742029,-0.67981 -6.096972,-1.51068 -6.202654,-2.18842 -5.993424,-1.13086 0.249809,1.26268 5.890523,2.25831 9.21448,2.75928 8.280453,1.248 z m -174.5,-2.5 c -0.78501,-0.94589 -0.85205,-1.5 -0.18146,-1.5 0.58488,0 1.34154,0.45 1.68146,1 0.98702,1.59702 2.49368,1.15738 2.57029,-0.75 0.0604,-1.5045 0.1974,-1.46943 0.97641,0.25 0.64412,1.4217 0.74673,0.84339 0.35489,-2 -0.43735,-3.17361 -0.30969,-3.6901 0.61792,-2.5 0.99362,1.27479 1.07992,1.22498 0.57482,-0.33179 -0.32688,-1.00748 -0.59433,-2.24498 -0.59433,-2.75 0,-1.25418 -3.72871,-1.16618 -4.51531,0.10656 -0.34834,0.56363 -0.0374,0.90113 0.69098,0.75 1.91066,-0.39643 1.63248,3.31288 -0.34185,4.55825 -2.50713,1.58146 -5.12626,-0.96963 -4.37241,-4.25882 l 0.58997,-2.5742 -1.97348,2.5 -1.97347,2.5 3.14395,3.25 c 3.21157,3.31989 4.99681,4.45529 2.75162,1.75 z m -3.59501,-3.75 -1.90499,-2.25 2.25,1.90499 c 2.11445,1.79021 2.70524,2.59501 1.90499,2.59501 -0.18976,0 -1.20226,-1.0125 -2.25,-2.25 z m 25.82996,0.81151 c 5.20293,-4.78991 4.8815,-5.56151 -2.31674,-5.56151 h -3.91821 v 5 c 0,2.75 0.3375,4.98213 0.75,4.96029 0.4125,-0.0218 2.88073,-2.00129 5.48495,-4.39878 z m 10.26505,3.43849 c 0.33992,-0.55 0.39303,-1 0.11803,-1 -0.275,0 -0.77811,0.45 -1.11803,1 -0.33992,0.55 -0.39303,1 -0.11803,1 0.275,0 0.77811,-0.45 1.11803,-1 z m 7.16667,-2.66667 c -0.36667,-0.36667 -0.96667,-0.36667 -1.33334,0 -0.36666,0.36667 -0.0667,0.66667 0.66667,0.66667 0.73333,0 1.03333,-0.3 0.66667,-0.66667 z m 28.41105,-3.08333 7.17557,-3.75 12.62335,0.004 c 6.94285,0.002 16.67336,0.56119 21.62336,1.24236 8.63115,1.18773 18.5,0.79692 18.5,-0.73261 0,-1.34846 -12.138704,-2.01325 -37.896691,-2.07545 -14.081819,-0.034 -28.854549,-0.38788 -32.828279,-0.78641 -5.18814,-0.52031 -7.3519,-0.39383 -7.67519,0.44864 -0.28348,0.73876 0.26273,0.98679 1.47498,0.66978 1.66028,-0.43417 1.92518,0.0401 1.92518,3.44652 0,2.17248 0.3,4.24996 0.66667,4.61663 1.68004,1.68004 7.80326,0.36994 14.41105,-3.08333 z m 108.92228,3.25 c 0,-0.275 -0.225,-0.5 -0.5,-0.5 -0.275,0 -0.5,0.225 -0.5,0.5 0,0.275 0.225,0.5 0.5,0.5 0.275,0 0.5,-0.225 0.5,-0.5 z m 3.6666671,-0.16667 c -0.3666666,-0.36667 -0.9666666,-0.36667 -1.3333333,0 -0.3666667,0.36667 -0.066667,0.66667 0.6666667,0.66667 0.7333333,0 1.0333333,-0.3 0.6666666,-0.66667 z m -148.9999971,-1 c -0.36667,-0.36667 -0.96667,-0.36667 -1.33334,0 -0.36666,0.36667 -0.0667,0.66667 0.66667,0.66667 0.73333,0 1.03333,-0.3 0.66667,-0.66667 z m 114.140202,-1.85979 c -0.307887,-0.30789 -0.867047,0.24711 -1.242579,1.23333 -0.542684,1.4252 -0.427821,1.54006 0.559795,0.55979 0.683419,-0.67833 0.990672,-1.48524 0.682784,-1.79312 z m 29.193128,1.57177 c 0,-0.9082 -1.677788,-1.3057 -10.25,-2.42842 -5.135281,-0.67259 -4.748673,1.04176 0.5,2.21717 5.731169,1.28345 9.75,1.37053 9.75,0.21125 z m 28.666667,0.28802 c -0.366667,-0.36667 -0.966667,-0.36667 -1.333333,0 -0.366667,0.36667 -0.06667,0.66667 0.666666,0.66667 0.733334,0 1.033334,-0.3 0.666667,-0.66667 z m -176.666667,-0.83333 c 0,-0.275 -0.225,-0.5 -0.5,-0.5 -0.275,0 -0.5,0.225 -0.5,0.5 0,0.275 0.225,0.5 0.5,0.5 0.275,0 0.5,-0.225 0.5,-0.5 z m 129,0 c 0,-0.275 -0.225,-0.5 -0.5,-0.5 -0.275,0 -0.5,0.225 -0.5,0.5 0,0.275 0.225,0.5 0.5,0.5 0.275,0 0.5,-0.225 0.5,-0.5 z m 50,0 c 0,-0.275 -0.225,-0.5 -0.5,-0.5 -0.275,0 -0.5,0.225 -0.5,0.5 0,0.275 0.225,0.5 0.5,0.5 0.275,0 0.5,-0.225 0.5,-0.5 z m -172,-0.94099 c 0,-0.24254 -0.45,-0.71909 -1,-1.05901 -0.55,-0.33992 -1,-0.14148 -1,0.44098 0,0.58246 0.45,1.05902 1,1.05902 0.55,0 1,-0.19844 1,-0.44099 z m 2.3913,-0.98169 c -0.30027,-0.78248 -1.27341,-1.70184 -2.16255,-2.04304 -1.32812,-0.50964 -1.28666,-0.25576 0.2323,1.42268 2.17821,2.40689 2.67736,2.56731 1.93025,0.62036 z m 109.6087,-3.32524 c 0,-1.00949 -0.692526,-0.94532 -3.070762,0.28451 -2.429602,1.2564 -2.833239,1.87415 -1.933169,2.95867 0.955412,1.1512 1.447185,1.10564 3.070763,-0.28451 1.063243,-0.91038 1.933168,-2.24178 1.933168,-2.95867 z m -151.981,2.22503 c 1.06063,-1.27799 0.99174,-1.41846 -0.42844,-0.87349 -1.06046,0.40694 -2.70009,-0.23655 -4.39144,-1.72348 -2.48337,-2.1832 -2.46435,-2.11338 0.23797,0.87349 1.6154,1.7855 3.0228,3.24637 3.12756,3.24637 0.10475,0 0.75921,-0.6853 1.45435,-1.52289 z m 6.64767,0.85622 c -0.36667,-0.36667 -0.96667,-0.36667 -1.33334,0 -0.36666,0.36667 -0.0667,0.66667 0.66667,0.66667 0.73333,0 1.03333,-0.3 0.66667,-0.66667 z m 44,-1 c -0.36667,-0.36667 -0.66667,-0.0667 -0.66667,0.66667 0,0.73333 0.3,1.03333 0.66667,0.66666 0.36666,-0.36666 0.36666,-0.96666 0,-1.33333 z m 6.33333,1.16667 c 0,-0.275 -0.225,-0.5 -0.5,-0.5 -0.275,0 -0.5,0.225 -0.5,0.5 0,0.275 0.225,0.5 0.5,0.5 0.275,0 0.5,-0.225 0.5,-0.5 z m 108.666667,-0.16667 c -0.366667,-0.36667 -0.966667,-0.36667 -1.333333,0 -0.366667,0.36667 -0.06667,0.66667 0.666666,0.66667 0.733334,0 1.033334,-0.3 0.666667,-0.66667 z m -120.666667,-0.83333 c 0,-0.275 -0.225,-0.5 -0.5,-0.5 -0.275,0 -0.5,0.225 -0.5,0.5 0,0.275 0.225,0.5 0.5,0.5 0.275,0 0.5,-0.225 0.5,-0.5 z m 117.666667,-0.16667 c -0.366667,-0.36667 -0.966667,-0.36667 -1.333333,0 -0.366667,0.36667 -0.06667,0.66667 0.666666,0.66667 0.733334,0 1.033334,-0.3 0.666667,-0.66667 z m -156.666667,-0.83333 c 0,-0.275 -0.225,-0.5 -0.5,-0.5 -0.275,0 -0.5,0.225 -0.5,0.5 0,0.275 0.225,0.5 0.5,0.5 0.275,0 0.5,-0.225 0.5,-0.5 z m 178,-1.5 c 0.588703,-1.1 0.845368,-2 0.570368,-2 -0.275,0 -0.981665,0.9 -1.570368,2 -0.588702,1.1 -0.845367,2 -0.570367,2 0.275,0 0.981665,-0.9 1.570367,-2 z m -195.19394,-4.52727 c -0.32333,-0.32334 -1.60452,0.90053 -2.84709,2.71969 l -2.25921,3.30758 2.84709,-2.7197 c 1.5659,-1.49583 2.58254,-2.98424 2.25921,-3.30757 z m 45.86061,3.8606 c -0.36667,-0.36667 -0.66667,-0.0667 -0.66667,0.66667 0,0.73333 0.3,1.03333 0.66667,0.66666 0.36666,-0.36666 0.36666,-0.96666 0,-1.33333 z m 3.83333,0.66667 c 0.33992,-0.55 0.39303,-1 0.11803,-1 -0.275,0 -0.77811,0.45 -1.11803,1 -0.33992,0.55 -0.39303,1 -0.11803,1 0.275,0 0.77811,-0.45 1.11803,-1 z m 15,0 c 0.33992,-0.55 0.14148,-1 -0.44098,-1 -0.58246,0 -1.05902,0.45 -1.05902,1 0,0.55 0.19844,1 0.44098,1 0.24254,0 0.7191,-0.45 1.05902,-1 z m 82.5,0.5 c 0,-0.275 -0.225,-0.5 -0.5,-0.5 -0.275,0 -0.5,0.225 -0.5,0.5 0,0.275 0.225,0.5 0.5,0.5 0.275,0 0.5,-0.225 0.5,-0.5 z m 11.5,-0.5 c 0.361549,-0.585 -0.675954,-1 -2.5,-1 -1.824045,0 -2.861549,0.415 -2.5,1 0.339919,0.55 1.464919,1 2.5,1 1.035082,0 2.160082,-0.45 2.5,-1 z m 31.754236,-0.92847 c 0.779242,-0.70255 -1.537587,-9.47432 -3.169272,-11.999214 -0.753316,-1.165693 -1.96077,-0.712683 -6.5799,2.468634 -6.617936,4.55795 -7.367181,5.45905 -4.539081,5.45905 1.518245,0 2.247851,0.81917 2.687497,3.0174 l 0.60348,3.0174 5.12152,-0.64163 c 2.816836,-0.3529 5.460927,-0.94763 5.875756,-1.32164 z m -151.254236,-0.0715 c 0,-0.55 -0.45,-1 -1,-1 -0.55,0 -1,0.45 -1,1 0,0.55 0.45,1 1,1 0.55,0 1,-0.45 1,-1 z m 4,0.55901 c 0,-0.24254 -0.45,-0.71909 -1,-1.05901 -0.55,-0.33992 -1,-0.14148 -1,0.44098 0,0.58246 0.45,1.05902 1,1.05902 0.55,0 1,-0.19844 1,-0.44099 z m 10.66667,-0.22568 c -0.36667,-0.36667 -0.96667,-0.36667 -1.33334,0 -0.36666,0.36667 -0.0667,0.66667 0.66667,0.66667 0.73333,0 1.03333,-0.3 0.66667,-0.66667 z m 6,0 c -0.36667,-0.36667 -0.96667,-0.36667 -1.33334,0 -0.36666,0.36667 -0.0667,0.66667 0.66667,0.66667 0.73333,0 1.03333,-0.3 0.66667,-0.66667 z m 91.13333,-0.53333 c 0.66,-0.66 1.186317,-1.8975 1.169592,-2.75 -0.02255,-1.14934 -0.323569,-1.03302 -1.164537,0.45 -0.62377,1.1 -1.622587,2.33061 -2.219591,2.73468 -0.726011,0.4914 -0.737755,0.73976 -0.03546,0.75 0.5775,0.008 1.59,-0.52468 2.25,-1.18468 z m -155.26522,-3.43449 c 1.52469,-1.99897 2.23003,-3.45378 1.56743,-3.23291 -1.19701,0.399 -5.73612,6.8674 -4.8191,6.8674 0.26373,0 1.72699,-1.63552 3.25167,-3.63449 z m 16.13189,1.96782 c -0.36667,-0.36667 -0.66667,-0.0667 -0.66667,0.66667 0,0.73333 0.3,1.03333 0.66667,0.66666 0.36666,-0.36666 0.36666,-0.96666 0,-1.33333 z m 5.33333,1.16667 c 0,-0.275 -0.225,-0.5 -0.5,-0.5 -0.275,0 -0.5,0.225 -0.5,0.5 0,0.275 0.225,0.5 0.5,0.5 0.275,0 0.5,-0.225 0.5,-0.5 z m 6.15,-1 c 0,-0.5225 -0.48375,-1.11125 -1.075,-1.30834 -0.59125,-0.19708 -1.075,0.39167 -1.075,1.30834 0,0.91666 0.48375,1.50541 1.075,1.30833 0.59125,-0.19708 1.075,-0.78583 1.075,-1.30833 z m 6.35,0.5 c -0.33992,-0.55 -1.26648,-1 -2.05902,-1 -0.79254,0 -1.44098,0.45 -1.44098,1 0,0.55 0.92656,1 2.05902,1 1.13246,0 1.7809,-0.45 1.44098,-1 z m -19.5,-0.5 c 0,-0.275 -0.225,-0.5 -0.5,-0.5 -0.275,0 -0.5,0.225 -0.5,0.5 0,0.275 0.225,0.5 0.5,0.5 0.275,0 0.5,-0.225 0.5,-0.5 z m 9,0 c 0,-0.275 -0.225,-0.5 -0.5,-0.5 -0.275,0 -0.5,0.225 -0.5,0.5 0,0.275 0.225,0.5 0.5,0.5 0.275,0 0.5,-0.225 0.5,-0.5 z m 31,-1 c 1.07869,-1.29975 0.5689,-1.5 -3.81854,-1.5 -6.01115,0 -7.85459,1.70654 -2.4524,2.27028 2.07402,0.21643 4.05334,0.46916 4.3985,0.56161 0.34515,0.0925 1.18775,-0.50689 1.87244,-1.33189 z m 75.5,0.41045 c -27.99135,-2.55077 -38.37354,-4.09915 -48.78431,-7.275613 l -4.7843,-1.459754 -1.36157,2.162457 c -0.74886,1.18935 -1.66105,3.16644 -2.02707,4.39353 l -0.66551,2.23106 22.81138,0.28867 c 12.54626,0.15877 27.53638,0.33167 33.31138,0.38423 l 10.5,0.0956 z m 35.5,-1.41045 c 0,-1.83334 -0.533333,-2.5 -2,-2.5 -1.1,0 -2,0.18819 -2,0.41821 0,0.23002 -0.258041,1.09066 -0.573425,1.91254 -0.509609,1.32801 0.572096,2.05037 3.823425,2.55325 0.4125,0.0638 0.75,-1.009 0.75,-2.384 z m 1.683115,0.3125 c -0.319227,-0.79774 -0.556183,-0.56078 -0.604167,0.60416 -0.04342,1.05417 0.192927,1.6448 0.525219,1.3125 0.332292,-0.33229 0.367818,-1.19479 0.07895,-1.91666 z m -125.683115,0.6875 c 0,-0.275 -0.225,-0.5 -0.5,-0.5 -0.275,0 -0.5,0.225 -0.5,0.5 0,0.275 0.225,0.5 0.5,0.5 0.275,0 0.5,-0.225 0.5,-0.5 z m 2,0 c 0,-0.275 -0.225,-0.5 -0.5,-0.5 -0.275,0 -0.5,0.225 -0.5,0.5 0,0.275 0.225,0.5 0.5,0.5 0.275,0 0.5,-0.225 0.5,-0.5 z m 28.54806,-2.59293 c 0.87968,-1.70111 1.45004,-3.2423 1.26748,-3.42486 -0.68614,-0.68615 -12.57678,3.06046 -12.75129,4.01779 -0.20704,1.13579 3.12454,2.25266 7.16007,2.40032 2.08457,0.0763 3.09991,-0.62663 4.32374,-2.99325 z m -39.88139,1.42626 c -0.36667,-0.36667 -0.96667,-0.36667 -1.33334,0 -0.36666,0.36667 -0.0667,0.66667 0.66667,0.66667 0.73333,0 1.03333,-0.3 0.66667,-0.66667 z m 3.33333,0.16667 c 0,-0.275 -0.225,-0.5 -0.5,-0.5 -0.275,0 -0.5,0.225 -0.5,0.5 0,0.275 0.225,0.5 0.5,0.5 0.275,0 0.5,-0.225 0.5,-0.5 z m 123.666667,-1.16667 c -0.366667,-0.36667 -0.666667,-0.0667 -0.666667,0.66667 0,0.73333 0.3,1.03333 0.666667,0.66666 0.366667,-0.36666 0.366667,-0.96666 0,-1.33333 z m 13.333333,1.16667 c 0,-0.275 -0.225,-0.5 -0.5,-0.5 -0.275,0 -0.5,0.225 -0.5,0.5 0,0.275 0.225,0.5 0.5,0.5 0.275,0 0.5,-0.225 0.5,-0.5 z m -154.33333,-1.16667 c -0.36667,-0.36667 -0.96667,-0.36667 -1.33334,0 -0.36666,0.36667 -0.0667,0.66667 0.66667,0.66667 0.73333,0 1.03333,-0.3 0.66667,-0.66667 z m 8.0625,0.0625 c -0.33229,-0.33229 -1.19479,-0.36782 -1.91667,-0.079 -0.79773,0.31923 -0.56078,0.55619 0.60417,0.60417 1.05416,0.0434 1.64479,-0.19293 1.3125,-0.52522 z m 10.9375,-2.0625 c -0.36667,-0.36667 -0.66667,-0.0667 -0.66667,0.66667 0,0.73333 0.3,1.03333 0.66667,0.66666 0.36666,-0.36666 0.36666,-0.96666 0,-1.33333 z m 3.33333,-0.45137 c 0,-0.55 -0.45,-0.72188 -1,-0.38196 -0.55,0.33992 -1,1.06803 -1,1.61803 0,0.55 0.45,0.72189 1,0.38197 0.55,-0.33992 1,-1.06804 1,-1.61804 z m 2.98469,0.86804 c 0.0188,1.53454 1.58102,1.55831 9.6834,0.14734 l 6.33191,-1.10265 v -4.004336 c 0,-2.790329 -0.37897,-3.860216 -1.25,-3.528968 -0.6875,0.261451 -4.5125,1.056665 -8.5,1.767141 -5.76091,1.026456 -7.25,1.652867 -7.25,3.049836 0,0.966937 -0.26745,2.582367 -0.59433,3.589847 -0.49429,1.52345 -0.41271,1.5793 0.48469,0.33179 0.73372,-1.01999 1.08392,-1.09999 1.09433,-0.25 z m 114.51531,-2.25 c 0,-2.505523 -0.439124,-3.050792 -2.664159,-3.308142 -1.985693,-0.229667 -2.834393,0.228217 -3.332619,1.797988 -0.852557,2.686174 1.188843,5.197094 3.909273,4.808404 1.586505,-0.22667 2.087505,-1.01825 2.087505,-3.29825 z m 23.760676,-1.021066 c 3.706629,-2.486585 6.739324,-4.696914 6.739324,-4.911842 0,-0.214928 -4.95,1.244569 -11,3.243326 -10.913533,3.605542 -12.61923,4.619782 -9.25,5.500252 4.513765,1.17957 7.158775,0.42943 13.510676,-3.831736 z m -151.260676,1.970286 c 0,-0.61884 -1.575,-1.18437 -3.5,-1.25674 -3.60987,-0.13571 -4.85287,1.33937 -1.75,2.07674 2.98474,0.70931 5.25,0.3555 5.25,-0.82 z m -10.47293,-0.49303 c 0.81328,-1.315902 -1.27919,-3.929957 -2.85018,-3.560647 -0.64729,0.152166 -0.83659,0.08698 -0.42066,-0.144851 0.91583,-0.510473 -0.0327,-2.250695 -1.22676,-2.250695 -0.46888,0 -0.70175,0.7875 -0.5175,1.75 0.18426,0.9625 0.36944,2.5375 0.41152,3.500003 0.0837,1.91471 3.52995,2.44337 4.60358,0.70619 z m 18.55982,-1.23576 c 1.86046,-1.253768 4.3946,-4.066268 5.63143,-6.250004 2.19683,-3.878704 3.29687,-4.235844 1.2465,-0.404687 -1.18698,2.217883 -0.76602,2.314174 4.04178,0.924522 1.92137,-0.555355 5.28487,-1.083199 7.47444,-1.172986 2.18957,-0.08979 3.42427,-0.348842 2.74377,-0.575674 -0.6805,-0.226833 -1.00532,-0.787723 -0.72183,-1.246422 0.28349,-0.4587 -1.00929,-1.337205 -2.87285,-1.952235 -4.56934,-1.50802 -6.11612,-3.439235 -9.09649,-11.357345 -3.11242,-8.268949 -3.11263,-8.323469 -0.0336,-9.096246 1.375,-0.345103 2.5,-1.099211 2.5,-1.675795 0,-1.247834 -3.86235,-0.194063 -5.57837,1.521955 -1.45386,1.453859 -3.42163,10.36284 -3.42163,15.491261 0,2.217411 0.64421,4.362979 1.53095,5.09891 1.30003,1.078927 1.71019,0.795722 2.71924,-1.877555 1.27712,-3.383493 2.74981,-4.186012 2.74981,-1.498471 0,2.18275 -9.43833,11.171265 -12.55051,11.952372 -1.34476,0.337514 -3.1356,0.348661 -3.97964,0.02477 -1.25005,-0.479689 -1.2041,-0.134642 0.24777,1.860728 2.22159,3.05324 3.14104,3.0823 7.36927,0.2329 z m -41.58689,0.27957 c 0.33992,-0.550003 0.39303,-1.000003 0.11803,-1.000003 -0.275,0 -0.77811,0.45 -1.11803,1.000003 -0.33992,0.55 -0.39303,1 -0.11803,1 0.275,0 0.77811,-0.45 1.11803,-1 z m 71.82186,-0.594005 c 2.57298,-0.876701 4.67814,-2.049846 4.67814,-2.606988 0,-0.557143 0.66059,-0.759495 1.46798,-0.449672 0.80738,0.309823 1.74083,0.121818 2.07433,-0.417788 0.33349,-0.539607 0.0104,-0.857453 -0.71798,-0.706326 -0.86471,0.179413 -1.24206,-0.59287 -1.08729,-2.225224 l 0.23704,-2.5 -1.45501,1.897322 c -0.80025,1.043527 -1.21786,2.281027 -0.92802,2.75 0.74381,1.203512 -0.1371,1.069191 -4.24529,-0.647322 -6.38386,-2.667344 -8.34576,-1.707806 -8.34576,4.081788 0,2.912805 1.69849,3.081025 8.32186,0.82421 z m -41.32186,-2.966861 c 0,-0.280227 -0.94831,-0.002 -2.10736,0.61832 -1.4796,0.791861 -2.42197,0.81321 -3.16351,0.07167 -1.07166,-1.071657 -1.16293,-9.160981 -0.13992,-12.401011 0.3077,-0.974536 -0.4661,-5.226495 -1.71957,-9.448797 l -2.27902,-7.676913 -2.23394,4.948797 c -1.22866,2.721839 -2.26155,5.87392 -2.29531,7.004626 -0.11263,3.773037 4.10911,14.916508 6.47511,17.091317 1.28474,1.18093 2.02711,2.475659 1.64971,2.877176 -0.3774,0.401521 0.77631,-0.01375 2.56381,-0.922825 1.7875,-0.909071 3.25,-1.882133 3.25,-2.16236 z m 149.25,-0.843007 c 7.360133,-2.295699 11.75,-4.167491 11.75,-5.010074 0,-0.739822 -2.025,-3.004467 -4.5,-5.032543 -2.475,-2.028076 -4.5,-4.157137 -4.5,-4.731246 0,-0.574109 0.7875,-0.119798 1.75,1.009581 3.069512,3.601703 10.408075,9.188491 11.325125,8.621723 1.650785,-1.020241 -13.987233,-19.572263 -19.362313,-22.970307 l -2.787189,-1.762017 -2.557825,2.389376 c -4.111315,3.84056 -5.591006,7.642814 -5.365105,13.786321 0.113316,3.081681 0.205392,8.445924 0.204615,11.920541 -9.71e-4,4.339354 0.357752,6.180668 1.14564,5.880538 0.630879,-0.240324 6.434552,-2.086175 12.897052,-4.101893 z m -151.28518,-0.530388 c 1.54406,-2.885105 1.26389,-4.065742 -0.96482,-4.065742 -1.55556,0 -2,0.666667 -2,3 0,3.413757 1.4326,3.928722 2.96482,1.065742 z m 8.32467,-0.06475 c 0.67799,-2.592631 -0.69536,-3.388983 -3.17447,-1.840754 -1.81945,1.136266 -1.84116,1.323167 -0.29068,2.502074 2.30829,1.755092 2.86082,1.649642 3.46515,-0.66132 z m 3.71051,-1.191318 c 0,-1.314392 -2.27278,-0.491335 -2.77106,1.003503 -0.24358,0.730749 0.21359,0.954237 1.1875,0.580511 0.87096,-0.334218 1.58356,-1.047024 1.58356,-1.584014 z m 159.889161,0.397428 c 0.752862,-1.406737 0.569198,-1.822298 -0.852736,-1.929409 -1.323475,-0.09969 -1.676181,0.383872 -1.307713,1.792895 0.624056,2.386395 0.945479,2.406705 2.160449,0.136514 z M -170.61377,93.827127 c 0,-0.275 -0.225,-0.5 -0.5,-0.5 -0.275,0 -0.5,0.225 -0.5,0.5 0,0.275 0.225,0.5 0.5,0.5 0.275,0 0.5,-0.225 0.5,-0.5 z m 31,-1 c 0,-0.275 -0.225,-0.5 -0.5,-0.5 -0.275,0 -0.5,0.225 -0.5,0.5 0,0.275 0.225,0.5 0.5,0.5 0.275,0 0.5,-0.225 0.5,-0.5 z m 2,0 c 0,-0.275 -0.225,-0.5 -0.5,-0.5 -0.275,0 -0.5,0.225 -0.5,0.5 0,0.275 0.225,0.5 0.5,0.5 0.275,0 0.5,-0.225 0.5,-0.5 z M -4.6137695,87.541843 c 0,-0.533404 -0.6018377,-1.469307 -1.3374171,-2.079784 -1.0223054,-0.848438 -1.8856989,-0.526338 -3.6644702,1.367077 l -2.3270532,2.477035 1.793293,1.981566 1.793292,1.981566 1.8711778,-2.378817 c 1.0291477,-1.308349 1.8711777,-2.815239 1.8711777,-3.348643 z m -4,2.403318 c 0,-0.825 0.45,-1.778115 1,-2.118034 0.55,-0.339918 1,0.05697 1,0.881966 0,0.825 -0.45,1.778116 -1,2.118034 -0.55,0.339919 -1,-0.05697 -1,-0.881966 z m 6.6069888,1.800179 c -0.3338439,-0.869983 -0.6069888,-1.825083 -0.6069888,-2.122445 0,-0.297361 -0.6963005,0.03722 -1.5473344,0.743516 -1.2358964,1.025703 -1.2862149,1.449814 -0.25,2.107132 2.0491578,1.299875 3.0645568,0.992338 2.4043232,-0.728203 z M -142.18253,91.438384 c 0.3021,-0.488808 -1.02134,-2.086709 -2.94098,-3.550891 l -3.49026,-2.662148 v 2.501201 c 0,3.341327 4.90913,6.174667 6.43124,3.711838 z m -33.43124,-1.111257 c -1.93876,-1.252922 -3,-1.252922 -3,0 0,0.55 1.0125,0.99311 2.25,0.984688 1.81944,-0.01238 1.96296,-0.200813 0.75,-0.984688 z m 163,0.559017 c 0,-0.24254 -0.45,-0.719098 -1,-1.059017 -0.55,-0.339918 -1,-0.141476 -1,0.440983 0,0.58246 0.45,1.059017 1,1.059017 0.55,0 1,-0.198442 1,-0.440983 z m -167.44495,-1.46995 c -0.30965,-0.501013 -1.3487,-0.784449 -2.30902,-0.629858 -0.96032,0.154591 -2.53353,-0.126322 -3.49603,-0.624251 -1.08122,-0.559346 -1.75,-0.537741 -1.75,0.05653 0,1.052345 2.2145,1.811923 5.80902,1.992506 1.26996,0.0638 2.05567,-0.293919 1.74603,-0.794932 z m 30.44495,-2.557129 c 0,-1.651969 -0.87356,-2.925766 -2.64184,-3.852266 -1.69993,-0.890678 -3.40508,-3.282863 -4.7825,-6.709435 -2.26775,-5.641405 -3.19958,-6.491499 -5.51284,-5.029278 -2.37199,1.499337 2.5919,12.909741 6.87049,15.793084 4.3561,2.935571 6.06669,2.878584 6.06669,-0.202105 z m 19,-0.649972 c 0,-1.1 -0.45,-1.721884 -1,-1.381966 -0.55,0.339919 -1,1.518034 -1,2.618034 0,1.1 0.45,1.721885 1,1.381966 0.55,-0.339918 1,-1.518034 1,-2.618034 z m 117,0.806093 c 0,-1.301833 -5.819076,-6.202315 -6.525772,-5.495619 -0.572746,0.572746 4.554502,6.80756 5.59825,6.80756 0.510138,0 0.927522,-0.590373 0.927522,-1.311941 z M 0.38623047,87.26811 c 0,-0.582459 -0.45,-0.780901 -1,-0.440983 -0.54999997,0.339919 -0.99999997,0.141477 -0.99999997,-0.440983 0,-0.582459 -0.375,-1.059017 -0.8333334,-1.059017 -0.4583333,0 -0.8333333,0.675 -0.8333333,1.5 0,0.825 0.825,1.5 1.8333333,1.5 1.00833337,0 1.83333337,-0.476557 1.83333337,-1.059017 z M -179.9471,86.660461 c -0.36667,-0.366667 -0.96667,-0.366667 -1.33334,0 -0.36666,0.366666 -0.0667,0.666666 0.66667,0.666666 0.73333,0 1.03333,-0.3 0.66667,-0.666666 z m -4.66667,-0.774317 c 0,-0.24254 -0.45,-0.719098 -1,-1.059017 -0.55,-0.339918 -1,-0.141476 -1,0.440983 0,0.58246 0.45,1.059017 1,1.059017 0.55,0 1,-0.198442 1,-0.440983 z m 2,-0.05902 c 0,-0.275 -0.225,-0.5 -0.5,-0.5 -0.275,0 -0.5,0.225 -0.5,0.5 0,0.275 0.225,0.5 0.5,0.5 0.275,0 0.5,-0.225 0.5,-0.5 z m 8,-1 c 0,-0.275 -0.225,-0.5 -0.5,-0.5 -0.275,0 -0.5,0.225 -0.5,0.5 0,0.275 0.225,0.5 0.5,0.5 0.275,0 0.5,-0.225 0.5,-0.5 z m 1.66667,-1.166666 c -0.36667,-0.366667 -0.66667,-0.06667 -0.66667,0.666666 0,0.733334 0.3,1.033334 0.66667,0.666667 0.36666,-0.366667 0.36666,-0.966667 0,-1.333333 z m 2.33333,0.166666 c 0,-0.275 -0.225,-0.5 -0.5,-0.5 -0.275,0 -0.5,0.225 -0.5,0.5 0,0.275 0.225,0.5 0.5,0.5 0.275,0 0.5,-0.225 0.5,-0.5 z m -12.33333,-2.166666 c -0.36667,-0.366667 -0.66667,-0.06667 -0.66667,0.666666 0,0.733334 0.3,1.033334 0.66667,0.666667 0.36666,-0.366667 0.36666,-0.966667 0,-1.333333 z m -1.66667,0.166666 c 0,-0.275 -0.225,-0.5 -0.5,-0.5 -0.275,0 -0.5,0.225 -0.5,0.5 0,0.275 0.225,0.5 0.5,0.5 0.275,0 0.5,-0.225 0.5,-0.5 z m 4,0 c 0,-0.275 -0.225,-0.5 -0.5,-0.5 -0.275,0 -0.5,0.225 -0.5,0.5 0,0.275 0.225,0.5 0.5,0.5 0.275,0 0.5,-0.225 0.5,-0.5 z m 2,0 c 0,-0.275 -0.225,-0.5 -0.5,-0.5 -0.275,0 -0.5,0.225 -0.5,0.5 0,0.275 0.225,0.5 0.5,0.5 0.275,0 0.5,-0.225 0.5,-0.5 z M -10.204294,81.4736 c 0.7739746,-1.252318 -5.044067,-14.52537 -6.590908,-15.036238 -1.012254,-0.334312 -1.055008,-0.107314 -0.18404,0.977144 0.62399,0.776942 1.435222,2.820382 1.802737,4.540977 0.591622,2.769792 0.375623,3.201791 -1.884527,3.769052 -3.39352,0.85172 -3.21821,1.98001 0.697262,4.487544 3.499723,2.241282 5.323143,2.614736 6.159476,1.261521 z M -185.61377,79.827127 c 0,-0.275 -0.225,-0.5 -0.5,-0.5 -0.275,0 -0.5,0.225 -0.5,0.5 0,0.275 0.225,0.5 0.5,0.5 0.275,0 0.5,-0.225 0.5,-0.5 z m 2,0 c 0,-0.275 -0.225,-0.5 -0.5,-0.5 -0.275,0 -0.5,0.225 -0.5,0.5 0,0.275 0.225,0.5 0.5,0.5 0.275,0 0.5,-0.225 0.5,-0.5 z m 2,0 c 0,-0.275 -0.225,-0.5 -0.5,-0.5 -0.275,0 -0.5,0.225 -0.5,0.5 0,0.275 0.225,0.5 0.5,0.5 0.275,0 0.5,-0.225 0.5,-0.5 z m 175.0000005,0.05902 c 0,-0.24254 -0.5195289,-0.762069 -1.1545085,-1.154508 -0.7152994,-0.442079 -0.8830623,-0.274316 -0.440983,0.440983 0.7124403,1.152753 1.5954915,1.547665 1.5954915,0.713525 z M -184.9471,76.660461 c -0.36667,-0.366667 -0.66667,-0.06667 -0.66667,0.666666 0,0.733334 0.3,1.033334 0.66667,0.666667 0.36666,-0.366667 0.36666,-0.966667 0,-1.333333 z m -1.66667,0.166666 c 0,-0.275 -0.225,-0.5 -0.5,-0.5 -0.275,0 -0.5,0.225 -0.5,0.5 0,0.275 0.225,0.5 0.5,0.5 0.275,0 0.5,-0.225 0.5,-0.5 z m 178.0000005,-1 c 0,-0.275 -0.225,-0.5 -0.5,-0.5 -0.275,0 -0.5,0.225 -0.5,0.5 0,0.275 0.225,0.5 0.5,0.5 0.275,0 0.5,-0.225 0.5,-0.5 z M -187.9471,73.660461 c -0.36667,-0.366667 -0.66667,-0.06667 -0.66667,0.666666 0,0.733334 0.3,1.033334 0.66667,0.666667 0.36666,-0.366667 0.36666,-0.966667 0,-1.333333 z m 2.33333,1.166666 c 0,-0.275 -0.225,-0.5 -0.5,-0.5 -0.275,0 -0.5,0.225 -0.5,0.5 0,0.275 0.225,0.5 0.5,0.5 0.275,0 0.5,-0.225 0.5,-0.5 z m 2.66667,-0.166666 c -0.36667,-0.366667 -0.96667,-0.366667 -1.33334,0 -0.36666,0.366666 -0.0667,0.666666 0.66667,0.666666 0.73333,0 1.03333,-0.3 0.66667,-0.666666 z m 163.13333,-0.533334 c 1.317096,-1.317095 1.646384,-4.813234 0.45,-4.777764 -1.745879,0.05176 -5.482397,3.79272 -4.834803,4.84055 0.913321,1.477783 2.872285,1.449733 4.384803,-0.06279 z m -159.8,-0.3 c 0,-0.275 -0.225,-0.5 -0.5,-0.5 -0.275,0 -0.5,0.225 -0.5,0.5 0,0.275 0.225,0.5 0.5,0.5 0.275,0 0.5,-0.225 0.5,-0.5 z m 152.770834,-0.6875 c -0.618075,-1.854223 -2.770834,-2.16176 -2.770834,-0.395833 0,0.870833 0.7125,1.583333 1.583334,1.583333 0.870833,0 1.405208,-0.534375 1.1875,-1.1875 z m -157.770834,-0.3125 c 0,-0.275 -0.225,-0.5 -0.5,-0.5 -0.275,0 -0.5,0.225 -0.5,0.5 0,0.275 0.225,0.5 0.5,0.5 0.275,0 0.5,-0.225 0.5,-0.5 z m 3,0 c 0,-0.275 -0.225,-0.5 -0.5,-0.5 -0.275,0 -0.5,0.225 -0.5,0.5 0,0.275 0.225,0.5 0.5,0.5 0.275,0 0.5,-0.225 0.5,-0.5 z m -7,-2 c 0,-0.275 -0.225,-0.5 -0.5,-0.5 -0.275,0 -0.5,0.225 -0.5,0.5 0,0.275 0.225,0.5 0.5,0.5 0.275,0 0.5,-0.225 0.5,-0.5 z m 3,0 c 0,-0.275 -0.225,-0.5 -0.5,-0.5 -0.275,0 -0.5,0.225 -0.5,0.5 0,0.275 0.225,0.5 0.5,0.5 0.275,0 0.5,-0.225 0.5,-0.5 z m 17,0 c 0,-0.275 -0.225,-0.5 -0.5,-0.5 -0.275,0 -0.5,0.225 -0.5,0.5 0,0.275 0.225,0.5 0.5,0.5 0.275,0 0.5,-0.225 0.5,-0.5 z m -7.33333,-2.166666 c -0.36667,-0.366667 -0.66667,-0.06667 -0.66667,0.666666 0,0.733334 0.3,1.033334 0.66667,0.666667 0.36666,-0.366667 0.36666,-0.966667 0,-1.333333 z m 154.01756,-2.659026 c 1.025605,-1.303845 2.786046,-2.268587 3.979259,-2.180681 1.423926,0.104904 1.966443,-0.294434 1.621435,-1.19351 -0.422497,-1.101011 -0.80924,-1.115014 -2.088937,-0.07564 -1.3332,1.08283 -1.471369,1.01115 -0.914602,-0.474477 0.772652,-2.061674 -0.560471,-2.323573 -2.139959,-0.420407 -0.652979,0.786792 -2.335952,1.148703 -4.122445,0.886501 l -3.018981,-0.443092 v 3.446832 c 0,1.895758 0.284168,3.731 0.631483,4.078316 0.903355,0.903354 3.905502,-0.894062 6.052747,-3.623842 z m -164.68423,2.825692 c 0,-0.275 -0.225,-0.5 -0.5,-0.5 -0.275,0 -0.5,0.225 -0.5,0.5 0,0.275 0.225,0.5 0.5,0.5 0.275,0 0.5,-0.225 0.5,-0.5 z m 3,0 c 0,-0.275 -0.225,-0.5 -0.5,-0.5 -0.275,0 -0.5,0.225 -0.5,0.5 0,0.275 0.225,0.5 0.5,0.5 0.275,0 0.5,-0.225 0.5,-0.5 z m 3,0 c 0,-0.275 -0.225,-0.5 -0.5,-0.5 -0.275,0 -0.5,0.225 -0.5,0.5 0,0.275 0.225,0.5 0.5,0.5 0.275,0 0.5,-0.225 0.5,-0.5 z m 2,0 c 0,-0.275 -0.225,-0.5 -0.5,-0.5 -0.275,0 -0.5,0.225 -0.5,0.5 0,0.275 0.225,0.5 0.5,0.5 0.275,0 0.5,-0.225 0.5,-0.5 z M -8.9471029,67.922468 c 0,-0.801259 -0.6087782,-1.171049 -1.4171791,-0.860836 -1.166271,0.44754 -1.181025,0.69352 -0.08333,1.389346 0.7336149,0.465038 1.3713455,0.852415 1.4171788,0.860837 0.045833,0.0084 0.083333,-0.616784 0.083333,-1.389347 z M -33.785028,65.424506 c -0.720409,-1.153558 -1.672597,-2.097379 -2.115973,-2.097379 -0.443376,0 0.0024,1.080927 0.990546,2.40206 2.154526,2.880471 2.975743,2.658147 1.125427,-0.304681 z m -153.828742,1.402621 c 0,-0.275 -0.225,-0.5 -0.5,-0.5 -0.275,0 -0.5,0.225 -0.5,0.5 0,0.275 0.225,0.5 0.5,0.5 0.275,0 0.5,-0.225 0.5,-0.5 z m 8,0 c 0,-0.275 -0.225,-0.5 -0.5,-0.5 -0.275,0 -0.5,0.225 -0.5,0.5 0,0.275 0.225,0.5 0.5,0.5 0.275,0 0.5,-0.225 0.5,-0.5 z m 3,0 c 0,-0.275 -0.225,-0.5 -0.5,-0.5 -0.275,0 -0.5,0.225 -0.5,0.5 0,0.275 0.225,0.5 0.5,0.5 0.275,0 0.5,-0.225 0.5,-0.5 z m 2.66667,-1.166666 c -0.36667,-0.366667 -0.66667,-0.06667 -0.66667,0.666666 0,0.733334 0.3,1.033334 0.66667,0.666667 0.36666,-0.366667 0.36666,-0.966667 0,-1.333333 z m 3.33333,1.225683 c 0,-0.24254 -0.45,-0.719098 -1,-1.059017 -0.55,-0.339918 -1,-0.141476 -1,0.440983 0,0.58246 0.45,1.059017 1,1.059017 0.55,0 1,-0.198442 1,-0.440983 z m 2,-0.05902 c 0,-0.275 -0.225,-0.5 -0.5,-0.5 -0.275,0 -0.5,0.225 -0.5,0.5 0,0.275 0.225,0.5 0.5,0.5 0.275,0 0.5,-0.225 0.5,-0.5 z m -17,-1 c 0,-0.275 -0.225,-0.5 -0.5,-0.5 -0.275,0 -0.5,0.225 -0.5,0.5 0,0.275 0.225,0.5 0.5,0.5 0.275,0 0.5,-0.225 0.5,-0.5 z m 154.666667,-1.166666 c -0.366667,-0.366667 -0.666667,-0.06667 -0.666667,0.666666 0,0.733334 0.3,1.033334 0.666667,0.666667 0.366667,-0.366667 0.366667,-0.966667 0,-1.333333 z m -132.999997,-1 c -0.36667,-0.366667 -0.96667,-0.366667 -1.33334,0 -0.36666,0.366666 -0.0667,0.666666 0.66667,0.666666 0.73333,0 1.03333,-0.3 0.66667,-0.666666 z m -5.66667,-0.833334 c 0,-0.275 -0.225,-0.5 -0.5,-0.5 -0.275,0 -0.5,0.225 -0.5,0.5 0,0.275 0.225,0.5 0.5,0.5 0.275,0 0.5,-0.225 0.5,-0.5 z m -26,-1 c 0,-0.275 -0.225,-0.5 -0.5,-0.5 -0.275,0 -0.5,0.225 -0.5,0.5 0,0.275 0.225,0.5 0.5,0.5 0.275,0 0.5,-0.225 0.5,-0.5 z m 5,0 c 0,-0.275 -0.225,-0.5 -0.5,-0.5 -0.275,0 -0.5,0.225 -0.5,0.5 0,0.275 0.225,0.5 0.5,0.5 0.275,0 0.5,-0.225 0.5,-0.5 z m 10,0 c 0,-0.275 -0.225,-0.5 -0.5,-0.5 -0.275,0 -0.5,0.225 -0.5,0.5 0,0.275 0.225,0.5 0.5,0.5 0.275,0 0.5,-0.225 0.5,-0.5 z m 3,0 c 0,-0.275 -0.225,-0.5 -0.5,-0.5 -0.275,0 -0.5,0.225 -0.5,0.5 0,0.275 0.225,0.5 0.5,0.5 0.275,0 0.5,-0.225 0.5,-0.5 z m -4.5,-1.5 c 1.31874,-0.566682 1.48906,-0.878154 0.5,-0.914402 -0.825,-0.03023 -2.175,0.381247 -3,0.914402 -1.82797,1.181323 -0.24908,1.181323 2.5,0 z m -12.83333,-1.666666 c -0.36667,-0.366667 -0.66667,-0.06667 -0.66667,0.666666 0,0.733334 0.3,1.033334 0.66667,0.666667 0.36666,-0.366667 0.36666,-0.966667 0,-1.333333 z m 19.33333,-0.333334 c 0,-0.55 -0.47656,-1 -1.05902,-1 -0.58246,0 -0.7809,0.45 -0.44098,1 0.33992,0.55 0.81648,1 1.05902,1 0.24254,0 0.44098,-0.45 0.44098,-1 z m 4,0.5 c 0,-0.275 -0.225,-0.5 -0.5,-0.5 -0.275,0 -0.5,0.225 -0.5,0.5 0,0.275 0.225,0.5 0.5,0.5 0.275,0 0.5,-0.225 0.5,-0.5 z m -19.33333,-1.166666 c -0.36667,-0.366667 -0.96667,-0.366667 -1.33334,0 -0.36666,0.366666 -0.0667,0.666666 0.66667,0.666666 0.73333,0 1.03333,-0.3 0.66667,-0.666666 z m 15.33333,-3.877331 c 0,-0.720963 -1.22486,-2.274314 -2.7219,-3.45189 l -2.7219,-2.141049 -1.13075,3.318468 c -0.94339,2.76864 -0.87659,3.414016 0.40318,3.895143 2.32148,0.872753 6.17137,-0.138272 6.17137,-1.620672 z m 4.29293,-3.443851 c -0.32972,-1.260849 0.0702,-2.214282 1.09362,-2.606989 0.8874,-0.340527 1.61345,-1.294779 1.61345,-2.120559 0,-1.120021 -0.6647,-1.334591 -2.61666,-0.844679 -1.43917,0.361208 -3.92069,0.917545 -5.51449,1.236305 l -2.89781,0.579564 3.00538,2.872103 c 3.54362,3.386473 6.08122,3.808534 5.31651,0.884255 z m -0.76647,-7.819023 c -0.30789,-0.307888 -1.11479,-6.35e-4 -1.79313,0.682784 -0.98026,0.987616 -0.8654,1.102479 0.5598,0.559795 0.98622,-0.375532 1.54122,-0.934692 1.23333,-1.242579 z m 2.39021,-1.833805 c 0.22916,-0.197628 -1.00834,-0.359324 -2.75,-0.359324 -1.74167,0 -3.16667,0.458574 -3.16667,1.019052 0,0.896863 4.72224,0.370317 5.91667,-0.659728 z M -5.5348222,186.74379 c 0.047984,-1.16494 0.2849403,-1.4019 0.6041667,-0.60416 0.2888706,0.72187 0.2533443,1.58437 -0.078947,1.91666 -0.3322916,0.3323 -0.5686403,-0.25833 -0.5252193,-1.3125 z M -225.43556,119.67263 c 0.2247,-0.46503 1.36429,-2.93343 2.53241,-5.48534 1.16812,-2.55191 2.6111,-4.94096 3.20662,-5.30901 1.34167,-0.8292 1.38691,-1.13871 -0.7965,5.44885 -1.16708,3.52117 -2.45764,5.62431 -3.58701,5.8455 -0.97024,0.19003 -1.58022,-0.035 -1.35552,-0.5 z"
       id="path1" /></g></svg>
