<?xml version="1.0" encoding="UTF-8" standalone="no"?>
<!-- Created with Inkscape (http://www.inkscape.org/) -->

<svg
   version="1.1"
   id="svg2"
   width="512"
   height="512"
   viewBox="0 0 512 512"
   sodipodi:docname="theme_sun.svg"
   inkscape:version="1.2.1 (9c6d41e410, 2022-07-14, custom)"
   xmlns:inkscape="http://www.inkscape.org/namespaces/inkscape"
   xmlns:sodipodi="http://sodipodi.sourceforge.net/DTD/sodipodi-0.dtd"
   xmlns="http://www.w3.org/2000/svg"
   xmlns:svg="http://www.w3.org/2000/svg">
  <defs
     id="defs6" />
  <sodipodi:namedview
     id="namedview4"
     pagecolor="#505050"
     bordercolor="#ffffff"
     borderopacity="1"
     inkscape:showpageshadow="0"
     inkscape:pageopacity="0"
     inkscape:pagecheckerboard="1"
     inkscape:deskcolor="#505050"
     showgrid="false"
     inkscape:zoom="1.0390625"
     inkscape:cx="256.4812"
     inkscape:cy="256.4812"
     inkscape:window-width="1920"
     inkscape:window-height="1015"
     inkscape:window-x="0"
     inkscape:window-y="0"
     inkscape:window-maximized="1"
     inkscape:current-layer="g8" />
  <g
     inkscape:groupmode="layer"
     inkscape:label="Image"
     id="g8">
    <path
       style="fill:#000000;stroke-width:1.85989"
       d="M 214.59261,498.50052 C 189.96232,494.00711 171.77499,488.043 149.4403,477.13533 99.182994,452.59099 61.049827,414.94968 36.273988,365.42869 18.24823,329.39952 10.990157,297.93275 11.000011,255.85565 11.016745,187.09689 36.024333,127.89875 85.223889,80.156612 120.44278,45.980995 160.59438,24.81578 209.94424,14.412453 c 21.47259,-4.5265899 68.84491,-4.5548871 91.44682,-0.05462 49.50996,9.857912 92.74432,32.884563 128.02596,68.18672 35.55745,35.578107 60.06091,82.535317 68.96462,132.160257 4.1501,23.13065 3.24235,67.99451 -1.84145,91.00989 -10.54474,47.73841 -30.78428,86.03201 -63.34345,119.84715 -37.46403,38.90916 -83.70936,63.89152 -134.71222,72.77333 -19.98202,3.47975 -65.23541,3.56894 -83.89191,0.1654 z m 52.14622,-91.1568 c 4.15597,-4.15838 4.56387,-6.03371 4.56387,-20.98287 V 369.9445 l 12.55059,-3.24456 c 11.43667,-2.95659 26.58462,-9.58627 37.09069,-16.23313 3.82663,-2.421 4.85388,-1.84934 16.10837,8.96404 13.59378,13.06101 19.70098,14.64029 28.22964,7.30001 3.7488,-3.22647 4.93799,-5.96941 4.93799,-11.38992 0,-6.25279 -1.41813,-8.57164 -11.41303,-18.66203 l -11.41301,-11.52208 6.64624,-11.04082 c 6.5018,-10.80089 13.94857,-31.20181 13.94857,-38.21304 0,-3.1634 1.51299,-3.52488 14.75374,-3.52488 8.11457,0 16.94044,-0.83187 19.61309,-1.8486 6.1158,-2.32657 10.91647,-12.92917 8.59935,-18.99224 -3.31554,-8.67554 -7.64947,-10.59562 -25.21985,-11.1732 l -16.53186,-0.54345 -2.38903,-10.54577 c -2.41114,-10.64331 -8.13174,-23.93951 -15.27651,-35.50671 l -3.88682,-6.29265 9.44845,-9.17558 c 12.51554,-12.15413 15.55913,-19.11054 12.04409,-27.52811 -3.19059,-7.64058 -11.65259,-11.33478 -19.35285,-8.44875 -2.774,1.0397 -9.66599,6.44507 -15.31554,12.01193 l -10.27189,10.12159 -6.92326,-4.70722 c -9.247,-6.28715 -22.3504,-11.79231 -34.82108,-14.62943 l -10.22641,-2.32655 -0.54348,-16.56523 c -0.44867,-13.67549 -1.20923,-17.27429 -4.35986,-20.62994 -5.32801,-5.674705 -11.74897,-6.858855 -18.43442,-3.39966 -7.38154,3.81936 -9.20082,9.16749 -9.20082,27.04769 0,13.24846 -0.36127,14.76232 -3.52283,14.76232 -7.00715,0 -27.39622,7.4511 -38.19082,13.95667 l -11.0344,6.65012 -11.51539,-11.41967 c -10.08452,-10.00069 -12.40203,-11.41964 -18.65119,-11.41964 -5.41735,0 -8.1587,1.18988 -11.38329,4.94085 -7.33602,8.5336 -5.75766,14.64439 7.29576,28.24607 10.8071,11.26103 11.37843,12.28888 8.95884,16.11773 -6.643,10.51218 -13.26883,25.66895 -16.2237,37.11225 l -3.24269,12.5579 h -16.4068 c -14.94047,0 -16.81471,0.40813 -20.97067,4.56651 -6.719664,6.72356 -6.236196,16.01987 1.15684,22.24432 5.1552,4.34033 7.25587,4.81645 21.25068,4.81645 h 15.52996 l 2.18569,10.53457 c 1.20215,5.794 5.84063,17.64162 10.30773,26.32805 l 8.12204,15.7935 -11.1056,11.87878 c -13.05315,13.96201 -14.51725,20.84461 -6.20365,29.16305 8.3136,8.31844 15.19221,6.85348 29.14611,-6.20727 l 11.87187,-11.11203 15.78432,8.12676 c 8.68138,4.4697 20.52211,9.11087 26.31276,10.31372 l 10.52843,2.18696 v 15.53899 c 0,14.00294 0.47586,16.10484 4.81365,21.26302 6.22084,7.39734 15.51176,7.88109 22.23139,1.15753 z m -23.87096,-70.07229 c -24.80764,-3.51213 -49.64358,-21.94006 -60.63972,-44.9938 -22.2849,-46.72095 3.26297,-102.72281 52.74309,-115.61486 44.33766,-11.55219 88.77577,14.77938 100.41775,59.502 14.77939,56.77491 -33.44183,109.47082 -92.52112,101.10666 z"
       id="path293"
       sodipodi:nodetypes="ssscsssssssssssscsssssscsssssscsscsssscsscsssssscsssssscsssscsscssscsscssssssss" />
  </g>
</svg>
