<?xml version="1.0" encoding="UTF-8" standalone="no"?>
<!-- Created with Inkscape (http://www.inkscape.org/) -->

<svg
   version="1.1"
   id="svg2"
   width="512"
   height="512"
   viewBox="0 0 512 512"
   sodipodi:docname="theme_moon.svg"
   inkscape:version="1.2.1 (9c6d41e410, 2022-07-14, custom)"
   xmlns:inkscape="http://www.inkscape.org/namespaces/inkscape"
   xmlns:sodipodi="http://sodipodi.sourceforge.net/DTD/sodipodi-0.dtd"
   xmlns="http://www.w3.org/2000/svg"
   xmlns:svg="http://www.w3.org/2000/svg">
  <defs
     id="defs6" />
  <sodipodi:namedview
     id="namedview4"
     pagecolor="#505050"
     bordercolor="#ffffff"
     borderopacity="1"
     inkscape:showpageshadow="0"
     inkscape:pageopacity="0"
     inkscape:pagecheckerboard="1"
     inkscape:deskcolor="#505050"
     showgrid="false"
     inkscape:zoom="0.73472814"
     inkscape:cx="223.21181"
     inkscape:cy="233.41967"
     inkscape:window-width="1920"
     inkscape:window-height="1015"
     inkscape:window-x="0"
     inkscape:window-y="0"
     inkscape:window-maximized="1"
     inkscape:current-layer="g8" />
  <g
     inkscape:groupmode="layer"
     inkscape:label="Image"
     id="g8">
    <path
       style="fill:#000000;stroke-width:1.85957"
       d="M 231.46004,500.43676 C 119.57844,486.66822 33.061784,405.98286 13.499236,297.16667 9.808363,276.63633 10.289418,229.34397 14.387635,209.82828 25.151589,158.57022 46.482282,119.14495 83.340875,82.382719 131.285,34.563969 188.20072,11.015879 255.87284,11.000009 c 51.98278,-0.013 95.24284,13.05295 138.41351,41.80276 47.24336,31.46202 85.25841,85.266531 99.78482,141.230271 4.98761,19.21497 5.91877,26.56486 6.73234,53.14071 1.44731,47.27634 -4.93137,77.60722 -24.77781,117.81954 -33.29636,67.46414 -97.36844,116.35779 -172.92208,131.95752 -14.41949,2.97723 -58.39171,5.11678 -71.64358,3.48595 z m 80.85613,-94.57751 c 32.26195,-9.35483 60.86213,-28.27246 79.49962,-52.58516 10.51543,-13.71746 11.19631,-18.8767 3.5048,-26.55743 l -5.4788,-5.47113 -20.10819,1.15608 c -24.26157,1.39487 -41.53405,-1.7246 -60.9819,-11.01354 -32.75765,-15.64617 -55.02016,-40.94347 -67.29907,-76.47323 -4.46006,-12.90547 -5.15102,-17.80705 -5.23902,-37.16527 -0.12078,-26.55592 3.44084,-40.09072 16.58677,-63.03358 9.44149,-16.47769 10.49465,-23.73274 4.38751,-30.2244 -4.90956,-5.218651 -13.59756,-5.615371 -30.00378,-1.37006 -53.95176,13.96071 -98.13456,60.49313 -111.24855,117.16471 -5.92742,25.61504 -4.53338,57.61165 3.59243,82.45522 18.21727,55.69686 63.44988,95.30472 122.16685,106.97521 19.34049,3.8441 49.79854,2.18043 70.62133,-3.85742 z m -62.30245,-27.0376 c -37.11078,-5.45912 -73.50863,-31.32923 -90.81497,-64.54755 -19.64024,-37.69809 -20.31479,-78.15239 -1.92749,-115.5954 6.18694,-12.59876 10.99515,-19.03492 23.75963,-31.80397 15.61149,-15.61709 33.77973,-28.00641 31.19105,-21.26987 -5.66129,14.7324 -7.63188,27.93234 -7.64588,51.21558 -0.0186,30.32088 2.87903,43.15832 15.72696,69.68488 10.71302,22.11871 24.72014,39.62052 43.87337,54.81955 21.02501,16.68439 41.51636,25.46067 76.06704,32.57891 l 5.50498,1.13414 -9.22673,5.74917 c -25.77015,16.05731 -56.45832,22.45498 -86.50796,18.03456 z"
       id="path293"
       sodipodi:nodetypes="sssscssssssssscsssssssssssssssscssscss" />
  </g>
</svg>
