<?xml version="1.0" encoding="UTF-8" standalone="no"?>
<!-- Generator: Adobe Illustrator 17.1.0, SVG Export Plug-In . SVG Version: 6.00 Build 0)  -->

<svg
   version="1.1"
   id="Capa_1"
   x="0px"
   y="0px"
   viewBox="0 0 292 292"
   style="enable-background:new 0 0 292 292;"
   xml:space="preserve"
   sodipodi:docname="favicon.svg"
   inkscape:version="1.2.1 (9c6d41e410, 2022-07-14, custom)"
   xmlns:inkscape="http://www.inkscape.org/namespaces/inkscape"
   xmlns:sodipodi="http://sodipodi.sourceforge.net/DTD/sodipodi-0.dtd"
   xmlns="http://www.w3.org/2000/svg"
   xmlns:svg="http://www.w3.org/2000/svg"><defs
   id="defs37" /><sodipodi:namedview
   id="namedview35"
   pagecolor="#505050"
   bordercolor="#ffffff"
   borderopacity="1"
   inkscape:showpageshadow="0"
   inkscape:pageopacity="0"
   inkscape:pagecheckerboard="1"
   inkscape:deskcolor="#505050"
   showgrid="false"
   inkscape:zoom="1.8219178"
   inkscape:cx="146.27444"
   inkscape:cy="146.27444"
   inkscape:window-width="1920"
   inkscape:window-height="1015"
   inkscape:window-x="0"
   inkscape:window-y="0"
   inkscape:window-maximized="1"
   inkscape:current-layer="Capa_1" />
<path
   d="M272,0.5H20c-11.028,0-20,8.972-20,20v251c0,11.028,8.972,20,20,20h252c11.028,0,20-8.972,20-20v-251  C292,9.472,283.028,0.5,272,0.5z M56,266.917c-17.351,0-31.417-14.066-31.417-31.417S38.649,204.083,56,204.083  s31.417,14.066,31.417,31.417S73.351,266.917,56,266.917z M56,87.917c-17.351,0-31.417-14.066-31.417-31.417  S38.649,25.083,56,25.083S87.417,39.149,87.417,56.5S73.351,87.917,56,87.917z M146,177.917c-17.351,0-31.417-14.066-31.417-31.417  s14.066-31.417,31.417-31.417s31.417,14.066,31.417,31.417S163.351,177.917,146,177.917z M236,266.917  c-17.351,0-31.417-14.066-31.417-31.417s14.066-31.417,31.417-31.417s31.417,14.066,31.417,31.417S253.351,266.917,236,266.917z   M236,87.917c-17.351,0-31.417-14.066-31.417-31.417S218.649,25.083,236,25.083s31.417,14.066,31.417,31.417  S253.351,87.917,236,87.917z"
   id="path2"
   style="fill:#ffffff" />
<g
   id="g4">
</g>
<g
   id="g6">
</g>
<g
   id="g8">
</g>
<g
   id="g10">
</g>
<g
   id="g12">
</g>
<g
   id="g14">
</g>
<g
   id="g16">
</g>
<g
   id="g18">
</g>
<g
   id="g20">
</g>
<g
   id="g22">
</g>
<g
   id="g24">
</g>
<g
   id="g26">
</g>
<g
   id="g28">
</g>
<g
   id="g30">
</g>
<g
   id="g32">
</g>
</svg>
